<svg id="Layer_1" enable-background="new 0 0 511.954 511.954" height="512" viewBox="0 0 511.954 511.954" width="512" xmlns="http://www.w3.org/2000/svg"><g><g><g><path d="m483.395 48.679c64.276 64.201-367.179 501.567-434.669 434.157-47.48-47.424 11.334-183.058 131.365-302.947s255.825-178.634 303.304-131.21z" fill="#cf7a15"/><g><path d="m497.426 25.331c-38.448-38.403-130.223-12.688-228.463 56.848-1.781 1.26-1.431 4.004.607 4.783 33.516 12.808 67.238 28.931 62.567 40.61-5.886 14.716-66.31 1.198-107.414-9.915-.864-.234-1.777-.032-2.463.541-18.206 15.216-36.381 31.8-54.235 49.633-.01.01-.021.021-.031.031-1.419 1.418-.871 3.832 1.019 4.503 37.771 13.401 84.579 33.076 79.129 46.702-6.257 15.642-74.138-.616-114.932-11.978-1.014-.283-2.097.044-2.792.835-15.554 17.716-29.829 35.53-42.712 53.178-1.077 1.475-.422 3.566 1.296 4.185 36.99 13.342 80.404 32.125 75.144 45.276-5.624 14.061-61.04 2.345-101.819-8.42-1.169-.309-2.4.189-3.032 1.219-51.862 84.494-67.807 159.654-33.939 193.482 73.298 73.211 541.877-401.788 472.07-471.513z" fill="#f0a346"/></g><g><path d="m497.426 25.331c-15.947-15.928-41.073-20.816-72.024-16.132 12.858 2.508 23.694 7.813 32.024 16.132 61.032 60.96-289.474 431.706-427.543 475.022 86.089 52.091 536.047-406.599 467.543-475.022z" fill="#eb8f21"/></g></g></g><g><path d="m502.726 20.024c-20.579-20.553-54.806-25.397-98.982-14.009-41.325 10.654-89.43 34.875-139.113 70.042-8.269 5.851-3.249 15.778 4.284 18.687-8.421 5.956-16.873 12.238-25.237 18.769-6.297 4.916-18.053-7.91-26.228-1.07-18.638 15.577-37.051 32.427-54.726 50.081-6.748 6.921-1.08 15.162 6.367 17.832-7.362 7.506-14.568 15.155-21.539 22.855-4.395-1.163-8.553-2.295-12.332-3.348-3.76-1.049-7.858.175-10.438 3.112-15.468 17.617-29.98 35.686-43.134 53.705-6.303 8.64 2.371 14.748 9.41 17.338-5.501 7.94-10.733 15.889-15.628 23.747-7.08-1.77-17.416-6.656-22.526 1.673-56.115 91.426-68.395 167.206-32.846 202.713 8.719 8.709 21.661 10.732 33.446 9.454 61.656-6.682 168.962-99.539 212.235-139.152 84.833-77.657 164.826-168.473 208.761-237.006 5.233-8.164-7.392-16.258-12.628-8.096-43.284 67.517-122.318 157.195-206.261 234.037-87.85 80.419-164.008 131-203.723 135.305-9.617 1.045-16.761-.691-21.229-5.155-29.491-29.456-16.74-98.732 33.195-181.243 13.159 3.421 25.33 6.273 36.226 8.488 9.502 1.93 12.492-12.767 2.989-14.699-3.905-.794-7.995-1.68-12.229-2.64 4.623-7.268 9.527-14.602 14.664-21.921 42.224 16.712 49.929 25.839 51.303 28.287-1.294.664-5.126 1.972-14.885 1.666-11.61-.424-7.904 15.052 3.05 15.052 10.171 0 22.323-1.642 26.139-11.181.996-2.489 1.731-6.464-.421-11.256-3.41-7.592-14.798-20.091-73.161-41.676 11.309-15.197 23.581-30.401 36.563-45.301 19.29 5.313 45.878 12.024 68.391 15.502 32.424 5.007 48.162 2.387 52.623-8.765 1-2.499 1.735-6.488-.44-11.298-3.51-7.763-15.32-20.538-76.012-42.691 15.115-14.832 30.729-29.037 46.52-42.319 26.146 7.002 48.146 11.771 65.428 14.185 29.312 4.094 44.271 1.203 48.501-9.371 1.408-3.521 1.286-7.359-.353-11.103-2.963-6.768-12.328-17.735-58.161-36.042 45.59-31.369 89.324-52.983 126.902-62.672 27.024-6.967 63.645-10.871 84.637 10.097 9.148 9.138 5.318 31.575-10.785 63.18-4.402 8.641 8.962 15.45 13.365 6.811 19.852-38.968 22.551-66.087 8.018-80.604zm-318.208 166.057c46.712 17.985 54.893 27.731 56.292 30.25-2.017 1.081-10.334 3.752-39.519-1.097-11.975-1.989-24.996-4.845-37.256-7.831 6.66-7.202 13.513-14.339 20.483-21.322zm100.99-84.605c31.826 13.634 38.093 21.202 39.299 23.365-2.49 1.361-14.541 5.133-63.649-5.841 8.112-6.133 16.265-11.998 24.35-17.524z"/><path d="m72.65 354.061c9.652 0 9.668-15 0-15-9.652 0-9.668 15 0 15z"/><path d="m59.15 378.059c-9.652 0-9.668 15 0 15 9.652 0 9.668-15 0-15z"/><path d="m111.648 358.56c9.652 0 9.668-15 0-15-9.652 0-9.668 15 0 15z"/><path d="m135.647 262.565c9.652 0 9.668-15 0-15-9.652 0-9.668 15 0 15z"/><path d="m176.145 238.566c-9.652 0-9.668 15 0 15 9.651 0 9.667-15 0-15z"/><path d="m186.644 286.564c9.652 0 9.668-15 0-15-9.652 0-9.668 15 0 15z"/><path d="m219.643 156.07c-9.652 0-9.668 15 0 15 9.651 0 9.667-15 0-15z"/><path d="m258.641 148.57c-9.652 0-9.668 15 0 15 9.651 0 9.667-15 0-15z"/><path d="m265.64 193.069c9.652 0 9.668-15 0-15-9.652 0-9.668 15 0 15z"/><path d="m324.637 88.574c9.652 0 9.668-15 0-15-9.652 0-9.668 15 0 15z"/><path d="m366.635 55.575c-9.652 0-9.668 15 0 15 9.652 0 9.668-15 0-15z"/><path d="m359.135 106.573c9.652 0 9.668-15 0-15-9.651 0-9.667 15 0 15z"/></g></g></svg>