<svg id="Capa_1" enable-background="new 0 0 512.066 512.066" height="512" viewBox="0 0 512.066 512.066" width="512" xmlns="http://www.w3.org/2000/svg"><g><path d="m342.661 342.619c109.202-109.202 171.587-230.103 160.598-291.634-139.199-110.933-562.52 250.275-452.247 452.23 61.525 11.002 182.438-51.385 291.649-160.596z" fill="#cf8c5d"/><g><path d="m93.087 332.931h.01c19.851-37.044 46.222-75.471 78.932-112.083v-.01c65.996-73.951 147.223-128.04 220.827-154.774 44.179-16.045 83.19-21.205 110.404-15.078-1.963-10.989-6.25-20.096-13.046-26.892-22.679-22.68-75.261-21.927-138.344.983-21.927 7.964-45.128 18.607-68.791 31.878-11.776 6.6-23.663 13.862-35.569 21.777-28.578 18.958-57.215 41.648-84.539 67.978-2.748 2.628-5.477 5.306-8.195 8.025-8.245 8.245-16.16 16.631-23.733 25.117v.01c-32.71 36.612-59.081 75.04-78.932 112.083h-.011c-47.285 88.24-57.536 168.656-27.966 198.227 6.793 6.793 15.895 11.079 26.877 13.043-8.783-39.026 5.662-102.332 42.076-170.284z" fill="#c97c48"/></g><g><path d="m356.543 109.555c-1.672-8.817-2.921-17.681-3.795-26.545-11.775-18.744-47.675-9.465-42.926 23.211 4.513 6.706 9.086 12.907 13.62 18.601 12.207 15.337 36.742 4.012 33.101-15.267z" fill="#c97c48"/><path d="m351.869 25.076c-21.927 7.964-45.128 18.607-68.791 31.878 8.023 18.786 17.25 35.158 26.744 49.267 14.333-8.626 28.691-16.379 42.926-23.211-1.921-19.471-2.037-38.944-.879-57.934z" fill="#c16d35"/><path d="m244.831 221.267c-4.108-21.67-5.657-43.618-5.389-65.165-17.902-20.117-61.787 8.973-50.763 46.846 7.467 12.69 15.317 23.861 23.05 33.586 12.208 15.337 36.743 4.013 33.102-15.267z" fill="#c97c48"/><path d="m239.442 156.103c.334-26.854 3.493-53.085 8.067-77.372-28.578 18.958-57.215 41.648-84.539 67.978 7.253 21.336 16.169 40.028 25.709 56.239 16.269-16.808 33.29-32.458 50.763-46.845z" fill="#c16d35"/><path d="m124.352 341.747c-3.281-17.338-4.927-34.853-5.32-52.197-17.36-13.043-51.966 23.635-34.076 59.217 2.103 2.849 4.208 5.603 6.304 8.237 12.208 15.336 36.743 4.012 33.092-15.257z" fill="#c97c48"/><path d="m93.097 332.931c7.671-14.315 16.327-28.837 25.935-43.381-.876-38.708 4.508-76.564 12.01-109.689-32.71 36.612-59.081 75.04-78.932 112.083 9.816 22.346 21.311 41.199 32.846 56.822 2.577-5.244 5.285-10.525 8.13-15.836h.011z" fill="#c16d35"/></g><path d="m325.097 209.953c11.555-10.883 27.875-12.478 36.863-3.441 9.198 9.228 7.242 26.07-4.343 37.605-11.596 11.545-28.447 13.421-37.635 4.183-9.188-9.228-7.242-26.07 4.353-37.605.25-.251.511-.501.762-.742z" fill="#fff"/><path d="m222.994 315.867c9.238-3.491 18.968-2.337 25.197 3.912 9.188 9.238 7.242 26.08-4.353 37.615-11.585 11.545-28.437 13.421-37.625 4.183-9.198-9.228-7.252-26.07 4.343-37.615 3.741-3.721 8.034-6.44 12.438-8.095z" fill="#fff"/><g><path d="m469.962 175.434c-3.635-1.993-8.191-.669-10.186 2.961-66.655 121.305-198.441 244.987-310.935 296.258-56.585 25.789-100.106 29.515-119.402 10.216-12.737-12.736-17.243-37.926-12.689-70.928.566-4.104-2.301-7.889-6.404-8.455-4.1-.56-7.889 2.302-8.455 6.404-5.287 38.312.571 67.216 16.941 83.586 11.055 11.054 27.075 16.559 47.227 16.559 24.195-.001 54.347-7.937 89.004-23.732 114.612-52.236 249.237-177.8 317.861-302.683 1.993-3.632.668-8.191-2.962-10.186z"/><path d="m495.517 18.789c-24.69-24.689-79.174-25.021-145.792-.91-.255.076-.504.168-.747.27-113.06 41.178-234.102 140.904-303.379 270.072-.015.026-.031.051-.046.077-.004.008-.063.105-.063.105-16.227 30.293-28.4 59.962-36.18 88.183-1.101 3.993 1.244 8.123 5.237 9.224 4.011 1.104 8.127-1.26 9.224-5.237 6.337-22.99 15.75-47.042 28.017-71.672 9.418 18.833 20.683 36.533 33.604 52.774 7.69 9.66 20.345 12.605 31.443 7.516 11.199-5.133 17.182-16.723 14.886-28.838-8.765-46.322-6.667-99.117 6.217-156.943 7.077-7.877 14.445-15.668 21.95-23.179 11.278 29.547 26.704 56.746 45.973 80.975 7.669 9.636 20.312 12.612 31.434 7.519 11.205-5.131 17.195-16.725 14.905-28.853-7.71-40.67-6.979-86.636 2.124-136.647 8.36-5.488 16.823-10.725 25.273-15.639 10.238 22.284 22.984 43.08 37.976 61.908 7.657 9.62 20.292 12.622 31.436 7.52 11.204-5.132 17.194-16.726 14.902-28.854-4.547-23.976-6.165-50.088-4.823-77.682 58.182-20.273 106.138-20.763 125.821-1.08 19.137 19.138 15.617 62.2-9.656 118.147-1.705 3.775-.027 8.218 3.747 9.923 3.778 1.709 8.218.028 9.923-3.747 28.397-62.866 30.739-110.784 6.594-134.932zm-384.932 336.765c-3.858 1.77-9.419 1.852-13.456-3.221-14.514-18.242-26.83-38.435-36.652-60.063 16.15-29.643 35.451-58.325 57.58-85.586-8.48 49.568-8.852 95.358-1.075 136.459 1.219 6.429-2.506 10.627-6.397 12.411zm120.465-120.468c-3.857 1.767-9.417 1.848-13.45-3.22-19.62-24.671-35.057-52.601-45.947-83.072 20.657-19.592 42.616-37.646 65.5-53.858-7.078 46.305-6.993 89.205.309 127.722 1.216 6.442-2.516 10.644-6.412 12.428zm111.713-111.712c-3.855 1.766-9.417 1.848-13.454-3.225-14.489-18.196-26.774-38.337-36.593-59.945 17.172-9.34 34.304-17.399 51.126-24.054-.867 26.424.92 51.537 5.331 74.796 1.217 6.442-2.514 10.643-6.41 12.428z"/><path d="m229.87 322.747c2.93-2.928 2.932-7.677.003-10.606l-8.517-8.519c-2.93-2.928-7.678-2.928-10.607 0-2.929 2.93-2.929 7.678 0 10.607l8.515 8.515c2.925 2.928 7.676 2.934 10.606.003z"/><path d="m323.588 217.946c2.928 2.926 7.677 2.926 10.606-.005 2.928-2.93 2.926-7.679-.005-10.606-8.393-8.384-21.986-8.343-30.335.002-8.38 8.382-8.384 21.955.001 30.338 2.927 2.927 7.678 2.93 10.606-.001 2.929-2.929 2.929-7.678-.001-10.606-2.518-2.518-2.52-6.603 0-9.123 2.527-2.526 6.64-2.487 9.128.001z"/><path d="m261.483 291.711c-2.926-2.932-7.675-2.937-10.606-.009-2.932 2.926-2.936 7.675-.009 10.606 4.153 4.16 9.679 6.451 15.559 6.451 11.631 0 21.201-9.009 21.933-20.592 5.151-.332 10.208-2.438 14.14-6.363 8.562-8.577 8.561-22.533-.001-31.109-2.926-2.932-7.675-2.937-10.606-.009-2.932 2.926-2.936 7.675-.009 10.606 2.729 2.733 2.729 7.182.009 9.906-2.735 2.729-7.182 2.729-9.915 0-2.933-2.929-7.682-2.922-10.606.009-2.927 2.932-2.923 7.681.009 10.606 2.719 2.715 2.75 7.135-.009 9.896-2.73 2.735-7.158 2.737-9.889.002z"/></g></g></svg>