<svg id="Capa_1" enable-background="new 0 0 511.996 511.996" height="512" viewBox="0 0 511.996 511.996" width="512" xmlns="http://www.w3.org/2000/svg"><g><g><g><circle cx="127.857" cy="238.652" fill="#925b46" r="111.883"/><path d="m239.74 238.651c0 47.62-29.75 88.29-71.68 104.43-31.26-24.14-51.42-61.98-51.42-104.43s20.16-80.29 51.42-104.43c41.93 16.14 71.68 56.81 71.68 104.43z" fill="#865240"/><g><circle cx="74.613" cy="249.532" fill="#7b4b39" r="18.204"/></g></g><g><circle cx="248.524" cy="238.652" fill="#a96a53" r="111.883"/><path d="m360.409 238.651c0 61.79-50.09 111.88-111.88 111.88-5.76 0-11.41-.43-16.93-1.28 53.75-8.16 94.94-54.57 94.94-110.6s-41.19-102.44-94.94-110.6c5.52-.85 11.17-1.28 16.93-1.28 61.789 0 111.88 50.09 111.88 111.88z" fill="#925b46"/><g><circle cx="226.745" cy="193.594" fill="#7b4b39" r="18.204"/></g><g><circle cx="204.434" cy="264.857" fill="#7b4b39" r="18.204"/></g></g><g><g><path d="m457.423 336.037h-171.614c-12.045 0-21.81-9.765-21.81-21.81 0-12.045 9.765-21.81 21.81-21.81h171.614c12.045 0 21.81 9.765 21.81 21.81 0 12.046-9.765 21.81-21.81 21.81z" fill="#925b46"/><path d="m479.233 314.226c0 6.026-2.437 11.481-6.389 15.423-3.941 3.951-9.397 6.389-15.423 6.389h-41.144c6.026 0 11.481-2.437 15.422-6.389 3.952-3.941 6.389-9.397 6.389-15.423 0-12.041-9.76-21.811-21.811-21.811h41.144c12.052 0 21.812 9.77 21.812 21.811z" fill="#865240"/></g><g><path d="m479.228 270.602c0 6.02-2.44 11.48-6.39 15.42-3.94 3.95-9.4 6.39-15.42 6.39h-171.61c-12.04 0-21.81-9.76-21.81-21.81 0-6.02 2.44-11.47 6.39-15.42s9.4-6.39 15.42-6.39h171.611c12.049 0 21.809 9.77 21.809 21.81z" fill="#ba7c65"/><path d="m479.233 270.603c0 6.026-2.437 11.481-6.389 15.423-3.941 3.952-9.397 6.389-15.423 6.389h-41.144c6.026 0 11.481-2.437 15.422-6.389 3.952-3.941 6.389-9.397 6.389-15.423 0-12.041-9.76-21.811-21.811-21.811h41.144c12.052 0 21.812 9.77 21.812 21.811z" fill="#a96a53"/></g></g><g><path d="m457.96 385.227h-403.924c-25.701 0-46.536-20.835-46.536-46.536v-1.295c0-5.728 4.643-10.372 10.372-10.372h476.253c5.728 0 10.372 4.643 10.372 10.372v1.295c-.001 25.701-20.836 46.536-46.537 46.536z" fill="#fff2e3"/><path d="m504.5 337.395v1.296c0 25.701-20.836 46.537-46.537 46.537h-43.042c25.701 0 46.537-20.836 46.537-46.537v-1.296c0-5.725-4.646-10.372-10.372-10.372h43.042c5.726.001 10.372 4.647 10.372 10.372z" fill="#fce3c5"/></g></g><g><path d="m102.075 279.655h-.104c-4.142 0-7.5 3.357-7.5 7.5s3.358 7.5 7.5 7.5h.104c4.142 0 7.5-3.357 7.5-7.5s-3.358-7.5-7.5-7.5z"/><path d="m127.96 288.008h-.104c-4.142 0-7.5 3.357-7.5 7.5s3.358 7.5 7.5 7.5h.104c4.142 0 7.5-3.357 7.5-7.5s-3.357-7.5-7.5-7.5z"/><path d="m106.742 204.298h-.104c-4.142 0-7.5 3.357-7.5 7.5s3.358 7.5 7.5 7.5h.104c4.142 0 7.5-3.357 7.5-7.5s-3.358-7.5-7.5-7.5z"/><path d="m123.012 168.465c0-4.143-3.358-7.5-7.5-7.5h-.103c-4.142 0-7.5 3.357-7.5 7.5s3.358 7.5 7.5 7.5h.103c4.142 0 7.5-3.358 7.5-7.5z"/><path d="m74.613 223.828c-14.173 0-25.704 11.531-25.704 25.704s11.531 25.704 25.704 25.704 25.704-11.531 25.704-25.704-11.531-25.704-25.704-25.704zm0 36.408c-5.902 0-10.704-4.802-10.704-10.704s4.802-10.704 10.704-10.704 10.704 4.802 10.704 10.704-4.802 10.704-10.704 10.704z"/><path d="m226.745 219.298c14.173 0 25.705-11.531 25.705-25.704s-11.531-25.704-25.705-25.704-25.704 11.531-25.704 25.704 11.531 25.704 25.704 25.704zm0-36.408c5.902 0 10.705 4.802 10.705 10.704s-4.802 10.704-10.705 10.704-10.704-4.802-10.704-10.704 4.802-10.704 10.704-10.704z"/><path d="m204.434 290.562c14.173 0 25.704-11.531 25.704-25.704s-11.531-25.704-25.704-25.704-25.704 11.531-25.704 25.704 11.531 25.704 25.704 25.704zm0-36.409c5.902 0 10.704 4.802 10.704 10.704s-4.802 10.704-10.704 10.704-10.704-4.802-10.704-10.704 4.802-10.704 10.704-10.704z"/><path d="m494.125 319.523h-7.885c.321-1.742.493-3.514.493-5.296 0-8.654-3.773-16.441-9.757-21.811 5.984-5.37 9.757-13.157 9.757-21.812 0-16.161-13.148-29.31-29.31-29.31h-40.595c-4.142 0-7.5 3.357-7.5 7.5s3.358 7.5 7.5 7.5h40.595c7.89 0 14.31 6.419 14.31 14.31s-6.419 14.311-14.31 14.311h-171.614c-7.89 0-14.31-6.42-14.31-14.311s6.419-14.31 14.31-14.31h98.029c4.142 0 7.5-3.357 7.5-7.5s-3.358-7.5-7.5-7.5h-15.978c.019-.882.047-1.764.047-2.643 0-65.828-53.555-119.383-119.383-119.383-21.339 0-42.153 5.719-60.334 16.367-18.245-10.704-39.049-16.367-60.333-16.367-65.828 0-119.383 53.555-119.383 119.383 0 30.356 11.328 58.974 31.555 80.871h-22.157c-9.855.001-17.872 8.019-17.872 17.874v1.295c0 29.796 24.241 54.036 54.036 54.036h57.802c4.142 0 7.5-3.357 7.5-7.5s-3.358-7.5-7.5-7.5h-57.802c-21.524 0-39.036-17.512-39.036-39.037v-1.295c0-1.584 1.288-2.872 2.872-2.872h476.253c1.583 0 2.871 1.288 2.871 2.872v1.295c0 21.524-17.511 39.036-39.036 39.036h-313.131c-4.142 0-7.5 3.357-7.5 7.5s3.358 7.5 7.5 7.5h313.131c29.795 0 54.036-24.24 54.036-54.036v-1.295c0-9.854-8.017-17.872-17.871-17.872zm-221.605 0c-.669-1.678-1.02-3.478-1.02-5.296 0-7.891 6.419-14.31 14.31-14.31h171.614c7.89 0 14.31 6.419 14.31 14.31 0 1.818-.351 3.618-1.02 5.296zm-249.046-80.871c0-57.557 46.826-104.383 104.383-104.383 16.2 0 32.076 3.752 46.434 10.889-1.258 1-2.501 2.022-3.721 3.076-21.416 18.481-35.613 43.971-39.976 71.773-.642 4.093 2.154 7.931 6.247 8.572 4.094.644 7.93-2.155 8.572-6.246 3.813-24.298 16.228-46.581 34.957-62.743 18.921-16.329 43.125-25.321 68.154-25.321 57.557 0 104.383 46.826 104.383 104.383 0 .879-.025 1.761-.047 2.643h-67.051c-16.161 0-29.31 13.148-29.31 29.31 0 8.655 3.773 16.442 9.757 21.812-5.984 5.37-9.757 13.157-9.757 21.811 0 1.782.173 3.554.493 5.296h-74.454c-20.505-16.746-33.771-40.271-37.395-66.393-.569-4.104-4.354-6.975-8.459-6.398-4.103.569-6.968 4.356-6.398 8.459 3.365 24.259 13.995 46.554 30.412 64.332h-98.827c-24.414-19.937-38.397-49.334-38.397-80.872z"/><path d="m278.833 203.446c0 4.143 3.358 7.5 7.5 7.5h.104c4.142 0 7.5-3.357 7.5-7.5s-3.358-7.5-7.5-7.5h-.104c-4.142 0-7.5 3.358-7.5 7.5z"/><path d="m171.563 226.27h.104c4.142 0 7.5-3.357 7.5-7.5s-3.358-7.5-7.5-7.5h-.104c-4.142 0-7.5 3.357-7.5 7.5s3.358 7.5 7.5 7.5z"/><path d="m274.263 182.889.104.001h.072c4.109 0 7.459-3.312 7.498-7.43.039-4.142-3.287-7.531-7.429-7.57l-.104-.001c-4.106-.047-7.531 3.287-7.57 7.43-.039 4.141 3.287 7.531 7.429 7.57z"/></g></g></svg>