<svg id="Capa_1" enable-background="new 0 0 512 512" height="512" viewBox="0 0 512 512" width="512" xmlns="http://www.w3.org/2000/svg"><g><g><g><path d="m504.5 192.36c0-16.32-8.519-30.646-21.353-38.78-6.656-4.219-10.448-11.798-9.568-19.629 1.505-13.394-2.877-27.323-13.149-37.595-11.527-11.527-27.658-15.637-42.472-12.334-7.727 1.723-15.782-.96-20.728-7.142-8.408-10.511-21.336-17.247-35.844-17.247-16.32 0-30.646 8.523-38.78 21.357-4.219 6.656-11.798 10.448-19.629 9.568-13.394-1.505-27.325 2.872-37.597 13.144-11.527 11.527-15.635 27.663-12.331 42.477 1.723 7.727-.96 15.777-7.142 20.723-10.511 8.408-17.247 21.341-17.247 35.849 0 16.32 8.521 30.644 21.355 38.778 6.656 4.219 10.447 11.797 9.567 19.628-1.505 13.394 2.876 27.322 13.148 37.594 11.527 11.527 27.659 15.636 42.473 12.333 7.727-1.723 15.781.964 20.726 7.146 8.408 10.511 21.341 17.242 35.849 17.242 16.32 0 30.646-8.518 38.78-21.352 4.219-6.656 11.793-10.448 19.624-9.569 13.394 1.505 27.325-2.877 37.597-13.149 11.527-11.527 15.635-27.658 12.332-42.472-1.723-7.727.964-15.778 7.146-20.723 10.511-8.407 17.243-21.34 17.243-35.847z" fill="#f8e7c7"/><path d="m483.147 153.58c-6.656-4.219-10.448-11.798-9.568-19.629 1.505-13.394-2.877-27.323-13.149-37.595-9.881-9.881-23.145-14.294-36.063-13.277 3.154 1.949 6.144 4.269 8.88 7.005 10.908 10.908 15.561 25.7 13.963 39.924-.934 8.316 3.091 16.364 10.16 20.844 13.629 8.638 22.678 23.852 22.678 41.184 0 15.407-7.151 29.14-18.314 38.069-6.565 5.252-9.417 13.803-7.587 22.009 3.508 15.732-.855 32.864-13.097 45.106-2.939 2.939-6.167 5.409-9.583 7.44 12.996 1.094 26.367-3.313 36.312-13.257 11.527-11.527 15.635-27.658 12.332-42.472-1.723-7.727.964-15.778 7.146-20.723 10.511-8.408 17.243-21.341 17.243-35.848 0-16.32-8.519-30.646-21.353-38.78z" fill="#f4daa7"/><path d="m366.581 140.12c-31.721 0-57.433 25.713-57.433 57.433s25.712 57.437 57.433 57.437c31.72 0 57.437-25.716 57.437-57.437-.001-31.72-25.717-57.433-57.437-57.433z" fill="#df646e"/><path d="m366.581 140.12c-4.652 0-9.169.566-13.5 1.61 25.204 6.074 43.935 28.755 43.935 55.824s-18.731 49.75-43.935 55.824c4.331 1.044 8.848 1.612 13.5 1.612 31.72 0 57.437-25.716 57.437-57.437s-25.717-57.433-57.437-57.433z" fill="#d82f3c"/><path d="m330.552 400.544c-2.945-3.134-3.379-7.853-1.2-11.56 2.139-3.64 3.367-7.879 3.367-12.407 0-6.113-2.233-11.7-5.927-15.998-3.247-3.778-3.247-9.255 0-13.033 3.694-4.298 5.927-9.885 5.927-15.998s-2.233-11.7-5.927-15.998c-3.247-3.778-3.247-9.255 0-13.033 3.694-4.298 5.927-9.885 5.927-15.998 0-4.529-1.228-8.767-3.367-12.407-2.178-3.708-1.745-8.427 1.2-11.56 5.737-6.105 9.009-14.555 8.225-23.758-1.255-14.73-13.206-26.687-27.935-27.948-9.727-.833-18.613 2.865-24.781 9.217-2.469 2.543-6.397 2.891-9.35.929-3.885-2.581-8.544-4.088-13.559-4.088-6.744 0-12.848 2.719-17.286 7.118-2.89 2.864-7.516 2.865-10.406 0-4.438-4.399-10.542-7.118-17.286-7.118s-12.848 2.719-17.286 7.118c-2.89 2.864-7.516 2.864-10.406 0-4.438-4.399-10.542-7.118-17.286-7.118s-12.848 2.719-17.286 7.118c-2.89 2.864-7.516 2.864-10.406 0-4.438-4.399-10.542-7.118-17.286-7.118s-12.848 2.719-17.286 7.118c-2.89 2.864-7.516 2.865-10.406 0-4.438-4.399-10.542-7.118-17.286-7.118-5.015 0-9.674 1.507-13.559 4.088-2.952 1.962-6.88 1.614-9.35-.929-6.168-6.351-15.054-10.049-24.781-9.217-14.729 1.261-26.681 13.218-27.936 27.948-.784 9.204 2.488 17.653 8.226 23.759 2.945 3.134 3.379 7.853 1.2 11.56-2.139 3.64-3.367 7.879-3.367 12.407 0 6.113 2.233 11.7 5.927 15.998 3.247 3.778 3.247 9.255 0 13.033-3.694 4.298-5.927 9.885-5.927 15.998s2.233 11.7 5.927 15.998c3.247 3.778 3.247 9.255 0 13.033-3.694 4.298-5.927 9.885-5.927 15.998 0 4.529 1.228 8.767 3.367 12.407 2.178 3.708 1.745 8.427-1.2 11.56-5.738 6.106-9.01 14.555-8.226 23.759 1.255 14.73 13.207 26.687 27.936 27.948 9.727.833 18.613-2.865 24.781-9.217 2.469-2.543 6.397-2.891 9.35-.929 3.885 2.581 8.544 4.088 13.559 4.088 6.744 0 12.848-2.719 17.286-7.118 2.89-2.864 7.516-2.864 10.406 0 4.438 4.399 10.542 7.118 17.286 7.118s12.848-2.719 17.286-7.118c2.89-2.865 7.516-2.865 10.406 0 4.438 4.399 10.542 7.118 17.286 7.118s12.848-2.719 17.286-7.118c2.89-2.865 7.516-2.865 10.406 0 4.438 4.399 10.542 7.118 17.286 7.118s12.848-2.719 17.286-7.118c2.89-2.865 7.516-2.864 10.406 0 4.438 4.399 10.542 7.118 17.286 7.118 5.015 0 9.674-1.507 13.559-4.088 2.952-1.961 6.88-1.614 9.35.929 6.168 6.352 15.054 10.049 24.781 9.216 14.729-1.261 26.681-13.218 27.935-27.948.785-9.204-2.487-17.654-8.225-23.759z" fill="#ecb880"/><path d="m329.352 388.983c2.139-3.64 3.367-7.879 3.367-12.407 0-6.113-2.233-11.7-5.927-15.998-3.247-3.778-3.247-9.255 0-13.033 3.694-4.298 5.927-9.885 5.927-15.998s-2.233-11.7-5.927-15.998c-3.247-3.778-3.247-9.255 0-13.033 3.694-4.298 5.927-9.885 5.927-15.998 0-4.529-1.228-8.767-3.367-12.407-2.178-3.708-1.745-8.427 1.2-11.56 5.738-6.105 9.009-14.555 8.225-23.758-1.255-14.729-13.206-26.687-27.935-27.948-6.056-.518-11.784.72-16.735 3.26 9.183 4.731 15.758 13.973 16.671 24.687.784 9.204-2.488 17.653-8.226 23.758-2.945 3.134-3.378 7.853-1.2 11.56 2.139 3.64 3.367 7.879 3.367 12.407 0 6.113-2.233 11.7-5.927 15.998-3.247 3.778-3.247 9.255 0 13.033 3.694 4.298 5.927 9.885 5.927 15.998s-2.233 11.7-5.927 15.998c-3.247 3.778-3.247 9.255 0 13.033 3.694 4.298 5.927 9.885 5.927 15.998 0 4.529-1.228 8.767-3.367 12.407-2.178 3.708-1.745 8.427 1.2 11.56 5.738 6.105 9.01 14.555 8.226 23.759-.913 10.714-7.487 19.955-16.671 24.687 4.951 2.541 10.68 3.78 16.735 3.262 14.729-1.261 26.681-13.218 27.935-27.948.784-9.204-2.488-17.653-8.225-23.758-2.944-3.134-3.378-7.853-1.2-11.561z" fill="#e9a761"/></g></g><g><path d="m487.164 147.246c-4.336-2.748-6.686-7.521-6.13-12.462.997-8.93-.268-18.012-3.656-26.262-1.574-3.832-5.956-5.66-9.787-4.088-3.831 1.574-5.662 5.956-4.088 9.787 2.435 5.928 3.342 12.463 2.624 18.893-1.183 10.525 3.924 21.047 13.009 26.802 11.186 7.09 17.864 19.219 17.864 32.446 0 11.725-5.258 22.658-14.419 29.988-8.418 6.718-12.17 17.528-9.791 28.213 2.878 12.916-.978 26.2-10.315 35.539-8.299 8.307-19.767 12.314-31.457 10.998-10.532-1.18-21.051 3.926-26.791 13.005-7.098 11.188-19.228 17.868-32.447 17.868-11.726 0-22.658-5.258-29.995-14.426-2.332-2.914-5.255-5.311-8.534-7.079 4.5-5.657 6.968-12.691 6.968-19.947 0-5.705-1.522-11.309-4.4-16.206-.514-.875-.432-1.955.2-2.626 2.735-2.911 4.964-6.211 6.648-9.759 7.572 2.997 15.698 4.563 23.913 4.563 35.808 0 64.94-29.132 64.94-64.94 0-35.803-29.132-64.931-64.94-64.931-35.803 0-64.93 29.128-64.93 64.931 0 2.077.123 4.142.318 6.193-7.975 1.297-15.386 5.071-21.161 10.963-12.246-8.1-29.041-7.022-40.144 3.912-.569-.561-1.161-1.089-1.764-1.602-1.815-4.523-2.74-9.312-2.74-14.266 0-11.728 5.261-22.66 14.433-29.992 8.41-6.723 12.156-17.532 9.777-28.209-2.876-12.916.98-26.206 10.313-35.547 8.302-8.301 19.762-12.311 31.46-10.99 10.514 1.182 21.036-3.922 26.805-13.011 7.086-11.191 19.214-17.872 32.443-17.872 11.715 0 22.644 5.262 29.988 14.439 6.737 8.415 17.551 12.156 28.211 9.773 7.886-1.753 16.291-.959 23.676 2.232 3.804 1.646 8.217-.106 9.86-3.907 1.645-3.802-.105-8.217-3.907-9.86-10.263-4.439-21.944-5.541-32.895-3.105-5.037 1.126-10.107-.602-13.235-4.507-10.204-12.751-25.402-20.064-41.698-20.064-18.399 0-35.265 9.289-45.112 24.841-2.713 4.273-7.607 6.681-12.458 6.136-16.249-1.834-32.196 3.742-43.746 15.292-12.979 12.991-18.342 31.463-14.345 49.412 1.123 5.043-.602 10.113-4.502 13.231-12.753 10.194-20.068 25.397-20.068 41.709 0 2.307.162 4.586.448 6.838-1.133-.12-2.278-.187-3.434-.187-8.469 0-16.45 3.271-22.489 9.216-6.035-5.944-14.018-9.216-22.489-9.216-8.469 0-16.449 3.271-22.489 9.215-6.035-5.943-14.018-9.215-22.488-9.215s-16.452 3.271-22.489 9.216c-6.036-5.944-14.019-9.216-22.489-9.216-6.301 0-12.399 1.832-17.654 5.304-8.025-8.187-19.192-12.318-30.675-11.335-18.266 1.563-33.213 16.517-34.769 34.784-.926 10.862 2.804 21.626 10.233 29.532.631.671.712 1.75.198 2.625-2.878 4.899-4.399 10.504-4.399 16.207 0 7.664 2.749 15.081 7.738 20.886.838.974.838 2.283.001 3.256-4.99 5.806-7.739 13.223-7.739 20.887 0 7.663 2.748 15.081 7.739 20.887.837.974.837 2.282 0 3.255-4.991 5.806-7.739 13.224-7.739 20.887 0 5.703 1.521 11.307 4.399 16.207.514.875.433 1.954-.199 2.626-7.429 7.905-11.158 18.669-10.232 29.531 1.556 18.267 16.503 33.22 34.769 34.784 11.474.982 22.65-3.147 30.675-11.335 5.247 3.471 11.35 5.305 17.654 5.305 8.47 0 16.45-3.271 22.489-9.216 6.035 5.944 14.018 9.216 22.489 9.216 8.47 0 16.45-3.271 22.489-9.216 6.036 5.944 14.018 9.216 22.488 9.216 8.471 0 16.452-3.271 22.489-9.216 6.036 5.944 14.019 9.216 22.489 9.216s16.45-3.271 22.489-9.216c6.035 5.944 14.018 9.216 22.489 9.216 6.3 0 12.398-1.831 17.655-5.304 7.246 7.393 17.055 11.477 27.342 11.477 1.105 0 2.219-.047 3.332-.143 18.266-1.563 33.213-16.518 34.768-34.784.926-10.862-2.804-21.626-10.232-29.531-.631-.671-.713-1.752-.201-2.624 2.88-4.899 4.401-10.504 4.401-16.208 0-7.662-2.748-15.079-7.739-20.887-.837-.974-.837-2.282.001-3.256 4.756-5.534 7.469-12.532 7.714-19.809 9.055 6.665 20.038 10.346 31.586 10.346 18.383 0 35.248-9.283 45.119-24.842 2.696-4.267 7.585-6.668 12.441-6.125 16.254 1.835 32.199-3.745 43.744-15.299 12.983-12.984 18.347-31.453 14.347-49.403-1.122-5.044.605-10.113 4.515-13.234 12.746-10.202 20.056-25.403 20.056-41.71 0-18.395-9.284-35.261-24.836-45.116zm-120.585.376c27.537 0 49.94 22.399 49.94 49.931 0 27.537-22.402 49.94-49.94 49.94-7.002 0-13.907-1.495-20.245-4.307.863-18.836-12.239-34.725-29.214-38.877-.301-2.222-.471-4.478-.471-6.756 0-27.533 22.399-49.931 49.93-49.931zm-35.276 276.047c-.944 11.087-10.016 20.162-21.102 21.111-7.046.598-13.876-1.939-18.762-6.97-4.96-5.105-12.9-5.925-18.88-1.95-2.791 1.854-6.045 2.835-9.408 2.835-4.525 0-8.789-1.756-12.006-4.944-5.78-5.731-15.185-5.731-20.967-.001-3.217 3.189-7.481 4.945-12.006 4.945s-8.789-1.756-12.006-4.945c-5.78-5.729-15.187-5.729-20.967 0-3.217 3.189-7.481 4.945-12.006 4.945s-8.789-1.756-12.006-4.945c-5.782-5.73-15.186-5.729-20.966 0-3.217 3.189-7.481 4.945-12.006 4.945s-8.789-1.756-12.006-4.944c-5.78-5.731-15.186-5.731-20.966-.001-3.218 3.189-7.481 4.945-12.007 4.945-3.363 0-6.617-.98-9.408-2.835-5.982-3.974-13.922-3.154-18.881 1.951-4.885 5.031-11.717 7.568-18.761 6.969-11.086-.949-20.158-10.025-21.103-21.112-.572-6.722 1.636-13.109 6.218-17.985 5.161-5.491 6.066-13.919 2.202-20.496-1.526-2.598-2.333-5.575-2.333-8.608 0-4.077 1.461-8.022 4.114-11.109 5.681-6.608 5.681-16.202 0-22.811-2.653-3.086-4.114-7.032-4.114-11.109s1.461-8.023 4.114-11.109c5.68-6.608 5.681-16.201 0-22.811-2.653-3.086-4.114-7.031-4.114-11.108 0-3.034.807-6.011 2.333-8.608 3.864-6.577 2.959-15.005-2.201-20.496-4.583-4.877-6.791-11.265-6.219-17.986.944-11.087 10.017-20.163 21.103-21.112.682-.058 1.36-.087 2.036-.087 6.307 0 12.313 2.512 16.725 7.055 4.957 5.106 12.898 5.926 18.882 1.952 2.79-1.855 6.043-2.834 9.407-2.834 4.525 0 8.789 1.756 12.006 4.945 5.78 5.729 15.185 5.73 20.967 0 3.216-3.189 7.48-4.944 12.006-4.944 4.525 0 8.789 1.756 12.006 4.944 5.78 5.731 15.186 5.731 20.966 0 3.217-3.189 7.481-4.945 12.006-4.945 4.526 0 8.79 1.756 12.007 4.945 5.78 5.729 15.186 5.73 20.966 0 3.217-3.189 7.481-4.945 12.006-4.945 4.526 0 8.79 1.756 12.006 4.944 5.779 5.73 15.184 5.731 20.967 0 5.849-5.799 14.815-6.495 21.414-2.109 5.983 3.974 13.923 3.154 18.881-1.951 4.885-5.031 11.722-7.574 18.761-6.969 11.086.949 20.157 10.025 21.102 21.112.572 6.722-1.636 13.109-6.217 17.985-5.16 5.49-6.066 13.918-2.202 20.498 3.638 6.188 3.003 14.15-1.782 19.716-5.68 6.609-5.679 16.202.001 22.81 5.489 6.387 5.479 15.842 0 22.218-5.681 6.608-5.681 16.202-.001 22.81 2.654 3.088 4.115 7.034 4.115 11.11 0 3.034-.807 6.01-2.334 8.609-3.863 6.577-2.957 15.005 2.203 20.495 4.582 4.875 6.79 11.263 6.217 17.985z"/><path d="m123.438 301.488c0-4.142-3.357-7.5-7.5-7.5s-7.5 3.358-7.5 7.5v2.868c0 4.142 3.357 7.5 7.5 7.5s7.5-3.358 7.5-7.5z"/><path d="m173.194 311.856c4.143 0 7.5-3.358 7.5-7.5v-2.868c0-4.142-3.357-7.5-7.5-7.5s-7.5 3.358-7.5 7.5v2.868c0 4.142 3.357 7.5 7.5 7.5z"/><path d="m230.451 311.856c4.143 0 7.5-3.358 7.5-7.5v-2.868c0-4.142-3.357-7.5-7.5-7.5s-7.5 3.358-7.5 7.5v2.868c0 4.142 3.358 7.5 7.5 7.5z"/><path d="m115.938 351.244c-4.143 0-7.5 3.358-7.5 7.5v2.868c0 4.142 3.357 7.5 7.5 7.5s7.5-3.358 7.5-7.5v-2.868c0-4.142-3.358-7.5-7.5-7.5z"/><path d="m165.694 361.613c0 4.142 3.357 7.5 7.5 7.5s7.5-3.358 7.5-7.5v-2.868c0-4.142-3.357-7.5-7.5-7.5s-7.5 3.358-7.5 7.5z"/><path d="m222.951 361.613c0 4.142 3.357 7.5 7.5 7.5s7.5-3.358 7.5-7.5v-2.868c0-4.142-3.357-7.5-7.5-7.5s-7.5 3.358-7.5 7.5z"/><path d="m264.865 255.464h-183.342c-10.411 0-18.882 8.47-18.882 18.881v114.409c0 10.411 8.471 18.881 18.882 18.881h52.227c4.143 0 7.5-3.358 7.5-7.5s-3.357-7.5-7.5-7.5h-52.227c-2.141 0-3.882-1.741-3.882-3.881v-114.409c0-2.14 1.741-3.881 3.882-3.881h183.342c2.14 0 3.881 1.741 3.881 3.881v114.409c0 2.14-1.741 3.881-3.881 3.881h-96.115c-4.143 0-7.5 3.358-7.5 7.5s3.357 7.5 7.5 7.5h96.115c10.411 0 18.881-8.47 18.881-18.881v-114.409c0-10.411-8.469-18.881-18.881-18.881z"/><path d="m364.47 97.764c-3.281 2.528-3.893 7.237-1.364 10.519l4.73 6.139c1.478 1.918 3.699 2.923 5.947 2.923 1.597 0 3.208-.509 4.571-1.559 3.281-2.528 3.893-7.237 1.364-10.519l-4.73-6.139c-2.527-3.28-7.235-3.893-10.518-1.364z"/><path d="m302.927 122.011c-4.106-.533-7.871 2.364-8.403 6.472-.533 4.107 2.364 7.87 6.472 8.403l7.686.998c.328.042.653.063.976.063 3.712 0 6.938-2.755 7.428-6.536.533-4.107-2.364-7.87-6.472-8.403z"/><path d="m274.292 184.418-6.14 4.729c-3.282 2.527-3.894 7.236-1.366 10.518 2.523 3.276 7.232 3.898 10.519 1.366l6.14-4.729c3.282-2.527 3.894-7.236 1.366-10.518-2.526-3.282-7.236-3.895-10.519-1.366z"/><path d="m354.806 279.326c-3.281 2.528-3.893 7.237-1.364 10.519l4.73 6.139c1.478 1.918 3.699 2.923 5.947 2.923 1.597 0 3.208-.509 4.571-1.559 3.281-2.528 3.893-7.237 1.364-10.519l-4.73-6.139c-2.527-3.28-7.236-3.892-10.518-1.364z"/><path d="m424.478 257.229c-4.105-.531-7.87 2.363-8.403 6.472-.533 4.107 2.364 7.87 6.472 8.403l7.686.998c.328.042.653.063.976.063 3.712 0 6.938-2.755 7.428-6.536.533-4.107-2.364-7.87-6.472-8.403z"/><path d="m448.349 209.329c1.478 1.918 3.699 2.924 5.947 2.924 1.597 0 3.207-.509 4.57-1.559l6.14-4.729c3.282-2.528 3.894-7.237 1.365-10.519-2.527-3.28-7.235-3.893-10.518-1.365l-6.14 4.729c-3.281 2.528-3.892 7.238-1.364 10.519z"/><path d="m441.127 141.588.997-7.685c.533-4.107-2.365-7.87-6.473-8.402-4.094-.533-7.869 2.364-8.402 6.473l-.997 7.685c-.533 4.107 2.365 7.87 6.473 8.402.327.042.652.063.975.063 3.712 0 6.937-2.756 7.427-6.536z"/></g></g></svg>