<svg id="Capa_1" enable-background="new 0 0 508 508" height="512" viewBox="0 0 508 508" width="512" xmlns="http://www.w3.org/2000/svg"><g><g><g><g><g><path d="m254 7.5c-136.138 0-246.5 110.362-246.5 246.5s110.362 246.5 246.5 246.5 246.5-110.362 246.5-246.5-110.362-246.5-246.5-246.5zm0 314.559c-37.588 0-68.058-30.471-68.058-68.059s30.471-68.059 68.058-68.059 68.058 30.471 68.058 68.059-30.47 68.059-68.058 68.059z" fill="#e8bc85"/></g><g><path d="m441.411 193.104c-6.781-20.883.806-49.283-11.845-66.666-12.777-17.556-42.217-19.057-59.773-31.833-17.383-12.65-27.837-40.257-48.721-47.038-20.149-6.543-44.742 9.433-67.072 9.433s-46.923-15.976-67.072-9.433c-20.883 6.781-31.338 34.388-48.721 47.038-17.556 12.777-46.996 14.277-59.773 31.833-12.651 17.383-5.064 45.783-11.845 66.666-6.542 20.149-29.589 38.566-29.589 60.896s23.047 40.747 29.589 60.896c6.781 20.883-.806 49.283 11.845 66.666 12.777 17.556 42.217 19.057 59.773 31.833 17.382 12.65 27.837 40.257 48.721 47.038 20.149 6.543 44.742-9.433 67.072-9.433s46.923 15.975 67.072 9.433c20.883-6.781 31.338-34.388 48.721-47.038 17.556-12.777 46.996-14.277 59.773-31.833 12.65-17.383 5.064-45.783 11.845-66.666 6.542-20.15 29.589-38.566 29.589-60.896s-23.047-40.747-29.589-60.896zm-187.411 128.955c-26.427 0-48.888-15.945-61.218-38.286-2.207-4.554-3.932-9.382-5.077-14.313-9.684-41.503 22.794-83.519 66.295-83.519 37.588 0 68.059 30.471 68.059 68.059s-30.471 68.059-68.059 68.059z" fill="#ae583e"/></g><g><g><path d="m156.144 76.668c8.499-6.186 15.343-15.945 22.559-25.099-9.552 6.226-16.932 16.745-24.597 26.492.693-.451 1.377-.912 2.038-1.393z" fill="#ff905b"/></g><g><path d="m339.009 442.496c-20.149 6.542-53.608-14.999-75.938-14.999s-46.923 15.976-67.072 9.433c-20.883-6.781-24.474-29.823-41.856-42.473-17.556-12.777-44.995-13.277-57.772-30.833-12.65-17.382-5.064-45.783-11.845-66.666-6.542-20.148-21.526-21.592-21.526-43.922s23.047-40.747 29.589-60.896c6.032-18.577-7.356-60.068.296-77.495-5.739 3.04-10.784 6.753-14.452 11.793-12.651 17.383-5.064 45.783-11.845 66.666-6.541 20.149-29.588 38.566-29.588 60.896s23.047 40.747 29.589 60.896c6.781 20.883-.806 49.283 11.845 66.666 12.777 17.556 42.217 19.057 59.773 31.833 17.382 12.65 27.837 40.257 48.721 47.038 20.149 6.543 44.742-9.433 67.072-9.433s46.923 15.975 67.072 9.433c10.673-3.465 18.62-12.372 26.162-21.939-2.569 1.675-5.291 3.05-8.225 4.002z" fill="#7c3f2c"/></g></g><g><g><path d="m269.667 484.833c-136.138 0-246.5-110.362-246.5-246.5 0-64.083 24.46-122.45 64.545-166.288-49.291 45.072-80.212 109.9-80.212 181.955 0 136.138 110.362 246.5 246.5 246.5 72.055 0 136.883-30.921 181.955-80.212-43.838 40.086-102.205 64.545-166.288 64.545z" fill="#d09851"/></g></g><g><g><g><path d="m180.178 107.228-11.818-9.236c.668-.855 1.333-1.713 1.999-2.57 2.407-3.105 4.897-6.315 7.554-9.421l11.398 9.75c-2.422 2.832-4.694 5.762-7.1 8.863-.677.871-1.354 1.744-2.033 2.614z" fill="#fff"/></g><g><path d="m156.104 129.333-7.329-13.088 3.027-1.694 2.612-1.733 2.449-1.956 2.534-2.361 10.225 10.975-3.175 2.928-3.466 2.731-3.605 2.366z" fill="#fff"/></g><g><path d="m127.456 140.818-5.738-13.859c3.654-1.513 7.355-2.854 10.935-4.152 1.13-.409 2.259-.819 3.386-1.233l5.178 14.078c-1.149.423-2.3.84-3.45 1.257-3.583 1.298-6.966 2.525-10.311 3.909z" fill="#fff"/></g></g></g><g><g><path d="m344 344.089v-97.589c0-29.544-22.95-73.892-69.333-73.892-17.856 0-33.852 7.083-45.839 18.3 7.744-3.186 16.224-4.967 25.173-4.967 37.584 0 68.053 30.465 68.058 68.049v.019c-.003 19.564-8.272 37.188-21.491 49.601 8.06-3.32 15.335-8.149 21.491-14.125v41.635 20.408 1.472h.074c.739 7.485 7.051 13.333 14.73 13.333 8.177 0 14.805-6.628 14.805-14.805v-20.408c0 5.588-3.098 10.449-7.668 12.969z" fill="#7c3f2c"/></g><g><path d="m396.667 301.65c-8.1 0-14.667-9.151-14.667-9.151v14.893c0 8.1 6.567 14.667 14.667 14.667 8.1 0 14.667-6.567 14.667-14.667v-20.408c0 8.099-6.566 14.666-14.667 14.666z" fill="#7c3f2c"/></g></g><g><g><g><path d="m325.441 196.862c-3.181-3.925-6.271-7.243-9.448-10.143l10.113-11.078c3.736 3.41 7.331 7.263 10.989 11.777z" fill="#fff"/></g><g><path d="m339.189 220.614c-.624-1.684-1.399-3.39-2.221-5.196l-.472-1.041-.554-1.087c-.889-1.746-1.727-3.395-2.641-4.911l12.848-7.742c1.192 1.979 2.194 3.948 3.163 5.854l.781 1.55.529 1.169c.895 1.969 1.82 4.004 2.632 6.193z" fill="#fff"/></g></g></g></g></g></g><g><path d="m433.605 74.395c-47.974-47.974-111.759-74.395-179.605-74.395s-131.631 26.421-179.605 74.395-74.395 111.759-74.395 179.605 26.421 131.631 74.395 179.605 111.759 74.395 179.605 74.395c53.209 0 104.156-16.277 147.334-47.072l-8.711-12.213c-40.619 28.972-88.555 44.285-138.623 44.285-131.785 0-239-107.215-239-239s107.215-239 239-239 239 107.215 239 239c0 60.876-22.897 118.864-64.474 163.285l10.951 10.25c44.188-47.21 68.523-108.839 68.523-173.535 0-67.846-26.421-131.631-74.395-179.605z"/><path d="m406.115 438.351 9.555 11.564c4.04-3.339 8.033-6.851 11.866-10.438l-10.25-10.951c-3.608 3.376-7.367 6.682-11.171 9.825z"/><path d="m435.631 385.975c14.763-20.288 5.554-46.418 12.913-68.763 7.398-22.464 29.956-37.881 29.956-63.212 0-25.332-22.558-40.749-29.956-63.213-7.359-22.344 1.851-48.476-12.914-68.762-14.775-20.303-42.413-19.618-61.424-33.484-19.047-13.893-26.841-40.322-50.817-48.108-23.748-7.704-45.914 9.067-69.389 9.067-23.461 0-45.645-16.772-69.389-9.067-23.967 7.783-31.772 34.217-50.817 48.108-19.013 13.868-46.643 13.174-61.425 33.484-14.763 20.288-5.554 46.418-12.913 68.763-7.398 22.464-29.956 37.881-29.956 63.212 0 25.332 22.558 40.749 29.956 63.213 7.359 22.344-1.851 48.476 12.914 68.762 15.91 21.862 47.047 19.877 65.991 37.395 18.811 17.394 29.342 46.142 59.182 46.142 21.577-.002 41.07-12.922 62.814-10.525 20.982 2.312 41.532 15.562 63.032 8.582 23.967-7.784 31.772-34.217 50.817-48.108 19.013-13.87 46.643-13.176 61.425-33.486zm-68.457 20.156c-18.131 12.301-26.989 40.21-48.417 47.169-20.379 6.616-44.003-9.708-64.757-9.8-20.916-.092-44.205 16.479-64.756 9.8-21.428-6.958-30.286-34.867-48.418-47.169-16.71-11.337-43.916-11.928-56.328-28.982-12.768-17.541-4.246-44.667-10.774-64.568-6.59-20.089-29.224-36.566-29.224-58.581 0-21.987 22.64-38.51 29.224-58.579 6.535-19.92-2.01-47.004 10.774-64.569 13.209-18.149 42.601-18.038 59.791-31.502 17.166-13.445 28.339-45.856 53.281-45.856 20.229 0 38.525 11.736 59.032 10.89 19.759-.816 42.548-16.057 62.154-9.683 21.428 6.958 30.286 34.867 48.418 47.169 16.71 11.337 43.916 11.928 56.328 28.982 12.714 17.466 4.342 44.754 10.774 64.568 6.506 20.033 29.224 36.596 29.224 58.58 0 21.987-22.64 38.51-29.224 58.579-6.535 19.92 2.01 47.004-10.774 64.569-12.412 17.055-39.618 17.646-56.328 28.983z"/><path d="m195.011 267.763-14.611 3.395c1.274 5.484 3.172 10.834 5.641 15.9l13.484-6.568c-1.976-4.057-3.495-8.339-4.514-12.727z"/><path d="m403.834 247.166v60.226c0 5.436-6.085 8.934-10.781 6.187-4.814-2.815-3.431-8.886-3.469-13.446-.082-9.662-.899-19.713-9.372-25.921-14.642-10.728-36.044.075-36.044 18.287v59.029c0 9.42-14.609 9.42-14.609 0v-97.528c0-41.663-33.896-75.559-75.559-75.559s-75.559 33.896-75.559 75.559h15c0-33.393 27.166-60.559 60.559-60.559s60.559 27.166 60.559 60.559-27.166 60.559-60.559 60.559c-18.735 0-36.119-8.469-47.694-23.236l-11.806 9.254c14.438 18.419 36.124 28.982 59.5 28.982 24.756 0 46.769-11.968 60.559-30.422v52.392c0 12.299 10.006 22.305 22.305 22.305s22.305-10.006 22.305-22.305v-59.029c0-10.947 13.096-8.47 15.333 0 3.709 14.045-3.713 29.635 15.167 35.928 14.092 4.697 29.166-6.211 29.166-21.035v-60.226c0-8.669 9.182-7.999 15.166-7.999v-15c-14.69-.001-30.167 5.248-30.167 22.998z"/></g></g></svg>