<svg id="Capa_1" enable-background="new 0 0 512.103 512.103" height="512" viewBox="0 0 512.103 512.103" width="512" xmlns="http://www.w3.org/2000/svg"><g><path d="m387.488 377.812c47.501-8.133 86.769-21.406 108.095-40.583 18.464-16.607 6.476-47.29-18.354-47.29-31.626 0-225.736 0-348.056 0-40.799 48.816 7.465 113.54 74.588 120.485h146.416c19.088-.001 34.841-14.208 37.311-32.612z" fill="#6a8098"/><path d="m129.173 289.938c-45.124 0-80.484 0-94.304 0-24.83 0-36.818 30.683-18.354 47.29 21.326 19.177 60.594 32.451 108.095 40.583 2.47 18.404 18.223 32.611 37.31 32.611h41.841c-45.076-29.422-73.771-72.445-74.588-120.484z" fill="#516a7f"/><g id="XMLID_12_" fill="#e89fa9"><ellipse id="XMLID_15_" cx="177.356" cy="359.042" rx="29.036" ry="23.123"/><ellipse id="XMLID_13_" cx="334.743" cy="359.042" rx="29.036" ry="23.123"/></g><g><path d="m346.413 101.681c-3.634 0-51.238 0-96.728 0l-17.732 22.758v129.186l57.843 36.313h72.602c63.164 0 112.031-2.5 112.031-67.793-.001-70.694-57.312-120.464-128.016-120.464z" fill="#f8d4a5"/><path d="m316.794 222.146c0-40.269-15.969-77.115-44.964-103.75-6.832-6.275-14.249-11.856-22.145-16.715-40.644 0-79.6 0-83.999 0v188.258h124.109c.878-.74 1.738-1.5 2.579-2.28 16.204-15.028 24.42-37.07 24.42-65.513z" fill="#f3be77"/></g><path d="m231.832 287.87c37.079-4.578 61.869-19.227 61.869-65.725 0-70.694-57.311-120.465-128.015-120.465-.737 0-1.471.013-2.206.024-73.097 30.097-87.489 148.908-9.338 188.216 2.562-.001 5.144-.003 7.749-.003z" fill="#fae0bd"/><g><path d="m163.48 101.705c-69.686 1.024-125.809 50.483-125.809 120.44 0 66.765 50.876 67.792 116.471 67.775-14.088-25.319-22.195-54.961-22.195-86.649 0-38.145 11.744-73.324 31.533-101.566z" fill="#f8d4a5"/></g><g><path d="m148.968 256.463c4.619 0 8.805-1.878 11.828-4.91 3.042-3.032 4.91-7.209 4.91-11.838 0-9.237-7.5-16.737-16.737-16.737h-4.187c-4.527 0-8.719-1.449-12.146-3.901-17.144 5.263-16.148 27.017 7.159 37.067 1.942.205 3.91.319 5.901.319z" fill="#c97c48"/><path d="m145.294 181.465h16.235c30.342 0 54.971 24.981 54.389 55.453-.562 29.318-24.74 52.622-53.917 53.335h3.685c5.412 0 10.753.02 15.984.02 18.183 0 35.182-.211 50.162-2.068 10.864-14.358 17.38-32.139 17.571-51.467.472-48.857-39.137-88.747-87.874-88.747h-16.747c-1.408 0-2.799.071-4.18.177-23.946 8.736-25.109 32.498-7.745 37.237 3.54-2.476 7.844-3.94 12.437-3.94z" fill="#c97c48"/><path d="m123.867 201.251c.263-6.733 3.797-12.554 8.988-16.182 1.284-12.905 3.918-25.372 7.745-37.237-28.388 2.17-50.764 26.208-50.208 55.276.534 27.789 22.289 50.167 49.402 53.036-3.618-11.83-6.053-24.24-7.159-37.067-5.511-3.943-9.04-10.49-8.768-17.826z" fill="#c16d35"/></g><g><path d="m187.957 333.88c0-3.485 2.835-6.32 6.32-6.32s6.321 2.835 6.321 6.32c0 4.143 3.357 7.5 7.5 7.5s7.5-3.357 7.5-7.5c0-11.756-9.564-21.32-21.321-21.32-11.756 0-21.32 9.564-21.32 21.32 0 4.143 3.357 7.5 7.5 7.5s7.5-3.358 7.5-7.5z"/><path d="m311.499 333.88c0-3.485 2.835-6.32 6.32-6.32s6.321 2.835 6.321 6.32c0 4.143 3.357 7.5 7.5 7.5s7.5-3.357 7.5-7.5c0-11.756-9.564-21.32-21.321-21.32-11.756 0-21.32 9.564-21.32 21.32 0 4.143 3.357 7.5 7.5 7.5s7.5-3.358 7.5-7.5z"/><path d="m276.364 354.96c2.722-3.123 2.396-7.86-.728-10.581-3.123-2.722-7.86-2.396-10.581.728-4.773 5.476-13.245 5.469-18.012 0-2.721-3.124-7.46-3.448-10.581-.728-3.123 2.721-3.449 7.458-.728 10.581 10.728 12.314 29.871 12.35 40.63 0z"/><path d="m477.229 282.438h-22.807c18.48-11.839 27.506-31.669 27.506-60.293 0-6.462-.462-12.916-1.373-19.183-.597-4.1-4.409-6.948-8.501-6.343-4.099.596-6.938 4.401-6.343 8.501.808 5.554 1.217 11.282 1.217 17.024 0 54.345-33.476 60.293-104.531 60.293-9.087 0-79.458 0-88.559 0 15.794-10.165 27.363-28.036 27.363-60.293 0-50.374-27.675-91.803-70.104-112.965h9.892c68.705 0 120.515 48.564 120.515 112.965 0 4.143 3.357 7.5 7.5 7.5s7.5-3.357 7.5-7.5c0-50.374-27.675-91.803-70.104-112.965h40.013c48.674 0 90.752 24.74 109.814 64.565 1.782 3.723 6.252 5.321 10.003 3.526 3.736-1.788 5.315-6.267 3.526-10.003-21.578-45.083-68.841-73.089-123.344-73.089h-180.726c-75.903 0-135.516 54.087-135.516 127.965 0 28.628 9.017 48.456 27.495 60.293h-22.795c-31.351 0-47.201 38.931-23.369 60.367 6.397 5.752 14.439 11.146 23.902 16.036 3.677 1.902 8.205.459 10.105-3.221 1.901-3.68.46-8.204-3.221-10.105-8.327-4.303-15.312-8.968-20.757-13.863-13.329-11.989-4.647-34.214 13.339-34.214h442.359c18 0 26.658 22.233 13.34 34.213-18.783 16.891-54.866 30.296-104.347 38.768-3.233.554-5.731 3.144-6.168 6.396-1.997 14.884-14.841 26.108-29.876 26.108h-188.257c-15.035 0-27.879-11.225-29.876-26.108-.437-3.252-2.936-5.843-6.169-6.396-19.466-3.33-37.024-7.46-52.188-12.276-3.95-1.248-8.164.931-9.419 4.878-1.254 3.948.931 8.165 4.878 9.419 14.48 4.599 30.984 8.586 49.123 11.871 5.159 19.505 23.029 33.612 43.651 33.612h188.258c20.622 0 38.492-14.107 43.651-33.612 50.354-9.108 86.261-23.063 106.77-41.506 23.852-21.452 7.96-60.365-23.37-60.365zm-332.447-51.959h4.187c5.094 0 9.237 4.144 9.237 9.237s-4.135 9.248-9.237 9.248h-3.273c-25.871 0-47.315-20.636-47.803-45.999-.503-26.225 20.642-47.81 46.89-47.81h16.747c21.577 0 41.849 8.47 57.081 23.851 27.662 27.93 30.712 70.785 9.095 101.787-8.123.861-16.906 1.275-25.837 1.471 27.143-23.267 28.948-64.46 3.833-90.06-11.751-11.978-27.438-18.574-44.172-18.574h-16.235c-15.619 0-28.323 12.004-28.921 27.343-.599 16.102 12.273 29.506 28.408 29.506zm-99.612-8.334c0-64.4 51.811-112.965 120.516-112.965s120.515 48.564 120.515 112.965c0 35.33-15.138 49.279-39.157 55.367 17.269-34.559 12.202-78.793-17.775-109.062-18.071-18.246-42.128-28.295-67.739-28.295h-16.747c-34.638 0-62.549 28.45-61.888 63.098.644 33.476 28.815 60.711 62.801 60.711h3.273c13.39 0 24.237-10.854 24.237-24.248 0-13.364-10.873-24.237-24.237-24.237h-4.187c-7.531 0-13.704-6.266-13.42-13.936.277-7.12 6.527-12.913 13.932-12.913h16.235c12.673 0 24.558 5 33.464 14.079 8.9 9.072 13.669 21.052 13.426 33.73-.48 25.128-20.903 45.308-46.512 45.979-.086.001-.071 0-.083 0-28.507 0-66.547 1.21-89.318-8.986-18.905-8.464-27.336-24.282-27.336-51.287z"/></g></g></svg>