<svg id="Capa_1" enable-background="new 0 0 512.012 512.012" height="512" viewBox="0 0 512.012 512.012" width="512" xmlns="http://www.w3.org/2000/svg"><g><path d="m285.706 394.771c-18.836 8.789-40.609 8.783-59.44-.018-35.327-13.095-86.699 18.64-89.263 41.344 6.109 4.138 12.369 8.231 18.772 12.259h.02c16.188 10.194 33.249 19.957 50.78 29.039 30.983 16.058 67.881 16.058 98.864 0 23.522-12.185 47.298-26.209 69.59-41.31-2.159-22.441-60.1-51.694-89.323-41.314z" fill="#cf8c5d"/><path d="m176.033 305.528c-41.225 23.339-89.738 42.063-130.318 51.832-20.909 5.182-33.87 26.092-29.179 47.122 4.841 21.701 26.563 35.183 48.164 29.881 55.857-13.678 119.29-39.311 171.018-72.132 8.096-25.479-31.933-59.707-59.685-56.703z" fill="#cf8c5d"/><path d="m195.941 293.519c-6.385 4.119-13.049 8.125-19.908 12.009 16.28 20.135 36.224 39.083 59.685 56.703 6.989-4.434 13.771-8.996 20.285-13.681-23.847-17.131-43.944-35.534-60.062-55.031z" fill="#c97c48"/><path d="m465.559 357.23c-.301-.08-.601-.15-.912-.231-39.723-10.066-86.979-27.769-128.672-51.439-63.05-35.795-118.921-87.602-108.128-159.55h.01c1.104-7.362 3.605-13.487 7.043-18.608-7.624-28.253-68.519-21.738-86.527 14.496-11.996 105.522 59.299 183.759 154.751 236.202 46.072 25.245 97.719 44.792 143.329 56.113 21.611 5.373 43.383-8.139 48.224-29.871 4.682-21.01-8.249-41.869-29.118-47.112z" fill="#cf8c5d"/><path d="m234.899 127.402c5.302-7.897 12.852-13.385 21.104-17.167-22.918-10.534-62.839-12.602-101.801 3.248-3.211 9.98-4.718 18.636-5.829 28.415 27.111-15.527 61.168-20.348 86.526-14.496z" fill="#c97c48"/><path d="m309.72 381.658c-4.969 2.859-18.861 10.709-24.014 13.113 26.045 14.778 56.738 29.175 89.324 41.314 7.845-5.314 15.509-10.758 22.909-16.307-27.154-9.342-57.737-21.912-88.219-38.12z" fill="#c97c48"/><path d="m477.669 336.882c27.382-52.926 31.853-109.399 22.181-168.198-14.38-87.504-102.124-141.658-190.009-145.82-5.801 25.331 37.308 69.475 75.254 105.34 18.548 13.049 32.765 30.936 36.45 53.351 4.872 29.61 8.681 74.095-14.284 118.741-1.809 3.521-4.156 7.156-6.977 10.879 4.035 39.319 57.913 42.201 77.385 25.707z" fill="#cf8c5d"/><g fill="#c97c48"><path d="m383.695 329.224c30.171 13.051 58.799 22.163 80.952 27.776 5.287-6.888 9.663-13.628 13.022-20.117-9.231-3.401-34.047-7.742-77.385-25.708-4.415 5.827-10.002 11.872-16.589 18.049z"/><path d="m324.676 32.085c-4.748-3.32-9.699-6.395-14.836-9.221-18.213-.863-36.413.483-53.838 4.335 47.292 10.465 86.829 39.424 101.811 86.284 9.598 3.895 18.883 8.812 27.281 14.72-1.724-11.855-11.306-61.783-60.418-96.118z"/><path d="m202.306 381.658c-30.472 16.208-61.055 28.768-88.259 38.11 7.341 5.5 15.018 10.953 22.956 16.329 31.253-11.629 61.697-25.723 89.263-41.344-5.108-2.387-19.012-10.237-23.96-13.095z"/></g><path d="m362.645 134.222h-.01c-10.918-73.161-75.513-111.614-150.055-111.614-42.972 0-87.788 12.82-123.222 35.283-42.46 26.924-69.875 66.267-77.203 110.792-9.589 58.347-5.341 114.919 22.112 168.068 16.005 16.332 68.796 10.317 77.495-25.533-2.835-3.738-5.192-7.388-7.008-10.923-22.964-44.645-19.164-89.131-14.283-118.741 3.68-22.432 17.892-40.23 36.237-53.195 39.286-27.764 96.216-33.328 129.294-18.124 15.321 7.017 25.595 18.692 28.157 35.765-.065 3.825 7.99 36.125-14.445 75.561-11.366 34.459 33.741 64.781 60.256 53.468 29.693-43.711 40.112-91.232 32.675-140.807z" fill="#cf8c5d"/><path d="m269.715 221.561c-3.865 6.793-8.433 13.476-13.712 20.045 14.615 18.203 34.652 35.524 60.062 51.913 5.031-6.082 9.665-12.247 13.905-18.49-22.513-14.422-44.949-32.417-60.255-53.468z" fill="#c97c48"/><path d="m128.321 329.214c-6.576-6.155-12.15-12.183-16.558-17.995-44.311 18.496-67.664 22.06-77.495 25.533 3.368 6.519 7.759 13.284 13.071 20.208 22.283-5.614 50.88-14.725 80.982-27.746z" fill="#c97c48"/><path d="m476.577 353.283c3.056-4.521 5.703-8.955 7.91-13.25 26.083-50.679 33.529-107.126 22.764-172.566-5.155-31.347-20.008-60.761-42.954-85.063-2.846-3.015-7.594-3.147-10.602-.305-3.013 2.844-3.148 7.59-.305 10.602 20.885 22.121 34.392 48.816 39.06 77.201 10.224 62.149 3.256 115.555-21.303 163.272-2.508 4.882-5.704 10.013-9.508 15.294-20.611-5.466-42.698-12.853-64.677-21.864 7.602-8.057 13.293-15.725 16.969-22.878 23.983-46.628 20.055-92.752 15.014-123.389-5.013-30.503-28.687-56.771-65.147-72.476-12.817-36.42-39.467-62.37-73.973-77.53 50.164-2.326 102.022 14.135 138.228 40.258 3.357 2.424 8.047 1.664 10.471-1.693 2.424-3.359 1.665-8.047-1.693-10.471-38.154-27.529-88.231-43.317-137.394-43.317-22.205 0-38.024 3.296-43.391 4.428-55.59-11.799-120.839.409-170.703 32.022-44.288 28.083-72.908 69.246-80.587 115.91-10.756 65.439-3.309 121.885 22.763 172.564 2.181 4.24 4.793 8.614 7.8 13.073-19.542 9.069-31.045 30.857-26.104 53.01 5.764 25.831 31.561 41.839 57.269 35.533 15.363-3.762 30.886-8.294 46.311-13.475 17.89 13.204 39.004 27.088 60.601 39.559 3.565 2.058 8.16.865 10.245-2.745 2.071-3.587.843-8.174-2.745-10.245-17.367-10.03-34.599-21.049-50.9-32.632 24.927-9.194 49.337-19.998 72.131-31.916 5.6 3.187 11.409 6.39 17.344 9.551 22.871 12.177 50.191 12.182 73.073.001 5.669-3.015 11.487-6.223 17.338-9.547 22.528 11.754 47.218 22.617 72.211 31.854-24.397 17.351-51.828 34.036-80.104 48.683-28.3 14.668-62.211 14.906-90.711.634-3.702-1.854-8.208-.356-10.064 3.348-1.854 3.703-.356 8.21 3.348 10.064 32.47 16.262 71.473 16.303 104.328-.729 32.208-16.682 63.365-35.974 90.38-55.928 15.327 5.179 30.598 9.697 45.375 13.365 25.525 6.343 51.551-9.463 57.354-35.518 4.873-21.874-6.022-43.349-25.422-52.689zm-62.433-170.511c4.695 28.538 8.399 71.415-13.554 114.095-3.615 7.035-9.806 14.899-18.422 23.417-19.019-8.466-37.681-18.11-54.942-28.735 37.016-47.849 51.437-101.107 42.836-158.438-.253-1.671-.667-4.058-1.059-6.075 25.296 13.727 41.486 33.503 45.141 55.736zm-394.588-12.87c6.975-42.385 33.191-79.914 73.818-105.676 47.11-29.865 108.802-41.25 160.999-29.704.012.003.024.004.036.006 48.896 10.828 83.011 39.917 96.223 81.103.029.096.062.19.094.285 3.344 10.516 4.325 18.615 4.556 19.789 7.911 53.372-5.793 103.022-40.718 147.697-19.087-12.848-35.943-26.942-48.946-41.977 21.322-28.566 31.398-61.169 25.957-96.537-2.948-19.648-14.736-33.119-32.351-41.422-25.067-11.539-68.665-13.256-107.844 3.068-38.267 15.531-63.165 42.433-68.311 73.801-5.049 30.623-8.985 76.732 15.014 123.389 3.693 7.187 9.401 14.873 17.019 22.934-21.55 8.864-43.664 16.359-64.732 21.804-3.806-5.281-7.004-10.411-9.515-15.29-24.545-47.717-31.513-101.123-21.299-163.27zm215.717-22.78c1.913-12.756 8.716-22.108 20.732-28.511 11.466 6.107 18.754 15.196 20.738 28.511 4.318 28.782-2.659 56.333-20.741 82.024-18.342-26.054-25.004-53.673-20.729-82.024zm-50.426 144.51c-16.67 10.228-35.409 19.971-54.957 28.69-8.629-8.511-14.833-16.388-18.466-23.457-21.967-42.707-18.256-85.566-13.552-114.097 4.648-28.336 27.548-46.033 45.122-55.66-.385 1.987-.737 3.986-1.041 6-8.27 55.068 4.381 108.822 42.894 158.524zm-121.935 135.446c-17.489 4.302-35.117-6.578-39.056-24.229-3.834-17.188 6.561-33.971 23.615-38.196 48.818-11.753 104.481-34.948 146.987-61.328 13.785 15.848 30.042 30.892 48.675 45.064-51.402 34.956-118.417 63.555-180.221 78.689zm222.585-40.573c-18.465 9.829-40.513 9.828-58.976.001-2.972-1.583-5.904-3.177-8.802-4.773 13.556-7.651 26.392-15.683 38.259-23.977 11.905 8.33 24.672 16.334 38.283 23.997-2.95 1.625-5.879 3.217-8.764 4.752zm201.861 16.206c-3.924 17.61-21.534 28.588-39.098 24.222-149.545-37.118-314.464-138.532-291.474-291.595.835-5.547 2.04-10.975 3.554-16.207 29.102-11.044 57.753-11.613 78.277-6.821-10.246 8.544-16.242 19.708-18.188 32.588-17.31 115.405 129.443 190.755 242.345 219.364 1.241.314.858.218.958.241 17.065 4.288 27.443 21.072 23.626 38.208z"/></g></svg>