<svg id="Layer_1" enable-background="new 0 0 512 512" height="512" viewBox="0 0 512 512" width="512" xmlns="http://www.w3.org/2000/svg"><g><g><path d="m213.108 205.029-8.213 8.213v22.115l123.913 122.858h21.926l8.364-8.364c6.329-6.329 5.972-16.869-1.021-22.456-7.042-5.626-12.063-13.647-13.879-22.852-8.094-41.037-39.725-72.448-80.582-80.024-11.32-2.099-21.229-8.643-27.788-17.719-5.394-7.463-16.208-8.283-22.72-1.771z" fill="#ffb39d"/><path d="m182.781 235.356-12.389 12.389c-5.546 5.545-5.875 14.419-.782 20.383 2.5 2.927 5.133 5.758 7.899 8.484 19.188 18.915 43.289 31.501 69.699 36.398 4.435.823 7.766 4.251 8.692 8.95 5.511 27.94 19.932 52.583 40.246 70.86 5.907 5.315 14.966 5.017 20.585-.602l12.078-12.078v-21.926l-38.262-37.936v-41.388h-41.744l-43.907-43.534z" fill="#ff8f71"/><path d="m314.765 310.349c-5.7-28.9-27.924-51.012-56.618-56.333-23.331-4.327-43.083-19.9-53.252-40.775l-22.115 22.115c4.401 7.186 9.679 13.869 15.788 19.891 14.904 14.691 33.614 24.465 54.109 28.266 16.531 3.065 29.349 15.878 32.656 32.641 5.293 26.834 21.3 49.7 43.476 63.986l21.926-21.926c-18.38-9.491-31.844-26.951-35.97-47.865z" fill="#fad5cb"/></g><path d="m42.233 426.304 131.909-35.345 61.915 40.621-172.666 46.266c-.545 11.695-8.543 22.204-20.457 25.396-14.74 3.95-29.891-4.798-33.841-19.538-6.689-24.962 8.178-50.712 33.14-57.4z" fill="#4c5699"/><g><path d="m459.744 314.432c-5.665 1.518-87.145 23.35-161.675 43.321l-33.52 15.858v107.332h122.452c.061-.016 39.257-10.519 39.303-10.531 26.754-7.169 48.155-27.234 57.031-53.471l19.228-56.839c9.087-26.861-15.429-53.009-42.819-45.67z" fill="#9ea2e3"/><path d="m293.518 426.809c-6.479-5.687-11.127-13.166-13.359-21.493-4.966-18.534 2.792-37.469 17.91-47.563-62.018 16.618-119.224 31.946-123.928 33.206l14.303 53.379 45.055 39.547c20.805 18.284 49.372 24.96 76.125 17.792 3.908-1.047 45.033-12.067 77.377-20.733-20.742.091-41.127-8.161-57.077-22.178z" fill="#8288cb"/><path d="" fill="#ea5b70"/></g><g><path d="m471.359 54.608-8.213-8.213h-22.115l-122.858 123.914v21.926l8.364 8.364c6.329 6.329 16.869 5.972 22.456-1.021 5.626-7.042 13.647-12.063 22.852-13.879 41.037-8.094 72.448-39.725 80.024-80.582 2.099-11.32 8.643-21.229 17.719-27.788 7.463-5.395 8.283-16.209 1.771-22.721z" fill="#ffb39d"/><path d="m441.031 24.28-12.389-12.389c-5.545-5.546-14.419-5.875-20.383-.782-2.927 2.5-5.758 5.133-8.484 7.899-18.915 19.188-31.501 43.289-36.398 69.699-.823 4.435-4.251 7.766-8.95 8.692-27.94 5.511-52.583 19.932-70.86 40.246-5.315 5.907-5.017 14.966.602 20.585l12.078 12.078h21.926l37.936-38.262h41.388v-41.743l43.534-43.907z" fill="#ff8f71"/><path d="m366.039 156.265c28.9-5.7 51.012-27.924 56.333-56.618 4.327-23.331 19.9-43.083 40.775-53.252l-22.116-22.115c-7.186 4.401-13.869 9.679-19.891 15.788-14.691 14.904-24.465 33.614-28.266 54.109-3.065 16.531-15.878 29.349-32.641 32.656-26.834 5.293-49.7 21.3-63.986 43.476l21.926 21.926c9.492-18.38 26.951-31.845 47.866-35.97z" fill="#fad5cb"/></g><g fill="#ffdbe0"><path d="m262.636 433.279c-16.297 4.376-26.684 18.444-23.199 31.422 3.484 12.978 19.521 19.951 35.817 15.576s26.683-18.443 23.199-31.421c-3.484-12.979-19.52-19.952-35.817-15.577z"/><path d="m458.398 405.913c-3.484-12.978-19.521-19.952-35.818-15.577s-26.683 18.444-23.199 31.422 19.521 19.951 35.817 15.576c16.298-4.376 26.684-18.443 23.2-31.421z"/></g><path d="m374.99 416.917c-4.8-17.876-18.2-16.079-34.175-11.79s-28.474 9.446-23.675 27.322 21.64 28.89 37.615 24.601 25.035-22.257 20.235-40.133z" fill="#4c5699"/><g><path d="m457.795 307.173c-1.927.516-40.254 10.786-88.241 23.645-1.396-3.605-3.708-6.827-6.799-9.297-5.791-4.625-9.768-11.175-11.202-18.443-8.692-44.071-42.672-77.807-86.569-85.948-9.12-1.691-17.531-7.063-23.077-14.737-8.093-11.199-24.325-12.457-34.101-2.682l-42.715 42.717c-8.25 8.25-8.769 21.672-1.182 30.556 2.638 3.09 5.443 6.103 8.337 8.955 20.258 19.97 45.706 33.26 73.593 38.431 1.972.366 2.547 2.238 2.702 3.027 2.514 12.744 6.801 24.955 12.768 36.427-47.812 12.812-176.053 47.175-221.01 59.221-23.727 6.359-40.299 27.957-40.299 52.525 0 25.234 16.531 40.106 35.773 40.106 16.351 0 30.958-11.344 34.409-27.898l6.28-1.683c4.001-1.072 6.375-5.185 5.303-9.186s-5.187-6.374-9.185-5.304l-11.123 2.98c-3.154.845-5.399 3.634-5.551 6.895-.506 10.859-9.441 19.194-20.134 19.194-10.135.002-20.772-7.301-20.772-25.104 0-17.791 12-33.431 29.182-38.036l124.66-33.404 10.42 38.89-77.705 20.821c-4.001 1.072-6.375 5.185-5.303 9.186.898 3.351 3.928 5.561 7.239 5.561.643 0 1.296-.083 1.946-.257l81.076-21.725 42.035 36.897c16.71 14.687 37.897 22.497 59.565 22.497 7.818 0 15.7-1.017 23.455-3.095.563-.151 116.332-31.172 116.67-31.263 29.241-7.835 52.49-29.634 62.192-58.312l19.227-56.839c11.021-32.582-18.645-64.214-51.864-55.318zm-239.382-96.855c3.196-3.195 8.602-2.925 11.338.862 7.896 10.926 19.437 18.277 32.498 20.7 37.815 7.012 67.093 36.099 74.588 74.101 3.691 18.71 16.463 26.606 17.966 28.791-5.561 1.49-11.207 3.003-16.905 4.53-8.07-8.453-13.503-18.887-15.777-30.417-6.299-31.934-30.873-56.371-62.606-62.256-18.94-3.512-35.556-15.34-45.374-32.037zm-15.162 15.162c12.198 18.674 31.585 31.826 53.529 35.896 25.652 4.757 45.524 24.543 50.625 50.41 2.311 11.717 7.243 22.521 14.435 31.818-5.158 1.382-10.328 2.767-15.483 4.149-6.721-10.028-11.313-21.127-13.667-33.064-3.905-19.797-19.074-34.935-38.645-38.563-19.015-3.527-36.377-12.598-50.209-26.233-4.214-4.154-8.046-8.697-11.44-13.555zm45.324 80.142c-24.931-4.624-47.683-16.507-65.799-34.366-2.59-2.553-5.099-5.249-7.46-8.013-2.538-2.972-2.371-7.456.382-10.208l5.954-5.955c3.524 4.799 7.418 9.319 11.653 13.494 15.974 15.747 36.032 26.224 58.004 30.299 13.49 2.501 23.956 12.989 26.664 26.718 2.374 12.035 6.898 23.687 13.224 34.223-5.053 1.354-10.064 2.697-15.009 4.022-6.135-11.049-10.479-22.913-12.93-35.342-1.511-7.66-7.273-13.497-14.683-14.872zm246.875 52.062-19.227 56.839c-8.09 23.916-27.479 42.095-51.85 48.625 0 0-116.686 31.268-116.691 31.269-24.387 6.535-50.267.486-69.234-16.184l-43.344-38.047-11.773-43.938c44.145-11.829 273.589-73.311 278.346-74.585h.001c21.635-5.8 40.947 14.813 33.772 36.021z"/><path d="m404.991 230.589c0-4.142-3.357-7.5-7.5-7.5-4.142 0-7.5 3.358-7.5 7.5v5.99c0 4.142 3.357 7.5 7.5 7.5 4.142 0 7.5-3.358 7.5-7.5z"/><path d="m375.513 245.068c-4.142 0-7.5 3.358-7.5 7.5s3.357 7.5 7.5 7.5h5.99c4.142 0 7.5-3.358 7.5-7.5s-3.357-7.5-7.5-7.5z"/><path d="m419.47 245.068h-5.989c-4.143 0-7.5 3.358-7.5 7.5s3.357 7.5 7.5 7.5h5.989c4.142 0 7.5-3.358 7.5-7.5s-3.357-7.5-7.5-7.5z"/><path d="m397.492 261.058c-4.142 0-7.5 3.358-7.5 7.5v5.99c0 4.142 3.357 7.5 7.5 7.5 4.142 0 7.5-3.358 7.5-7.5v-5.99c-.001-4.142-3.358-7.5-7.5-7.5z"/><path d="m137.502 324.079c4.142 0 7.5-3.358 7.5-7.5v-5.99c0-4.142-3.357-7.5-7.5-7.5s-7.5 3.358-7.5 7.5v5.99c0 4.142 3.357 7.5 7.5 7.5z"/><path d="m115.523 340.068h5.99c4.142 0 7.5-3.358 7.5-7.5s-3.357-7.5-7.5-7.5h-5.99c-4.142 0-7.5 3.358-7.5 7.5s3.358 7.5 7.5 7.5z"/><path d="m153.491 340.068h5.989c4.142 0 7.5-3.358 7.5-7.5s-3.357-7.5-7.5-7.5h-5.989c-4.142 0-7.5 3.358-7.5 7.5s3.358 7.5 7.5 7.5z"/><path d="m137.502 362.048c4.142 0 7.5-3.358 7.5-7.5v-5.99c0-4.142-3.357-7.5-7.5-7.5s-7.5 3.358-7.5 7.5v5.99c0 4.142 3.357 7.5 7.5 7.5z"/><path d="m197.499 134.079c4.142 0 7.5-3.358 7.5-7.5v-5.99c0-4.142-3.357-7.5-7.5-7.5-4.142 0-7.5 3.358-7.5 7.5v5.99c.001 4.142 3.358 7.5 7.5 7.5z"/><path d="m175.521 150.068h5.99c4.142 0 7.5-3.358 7.5-7.5s-3.357-7.5-7.5-7.5h-5.99c-4.142 0-7.5 3.358-7.5 7.5s3.357 7.5 7.5 7.5z"/><path d="m213.489 150.068h5.989c4.143 0 7.5-3.358 7.5-7.5s-3.357-7.5-7.5-7.5h-5.989c-4.142 0-7.5 3.358-7.5 7.5s3.358 7.5 7.5 7.5z"/><path d="m197.499 172.048c4.142 0 7.5-3.358 7.5-7.5v-5.99c0-4.142-3.357-7.5-7.5-7.5-4.142 0-7.5 3.358-7.5 7.5v5.99c.001 4.142 3.358 7.5 7.5 7.5z"/><path d="m321.231 205.901c9.552 9.555 25.289 8.789 33.618-1.643 4.625-5.79 11.174-9.769 18.442-11.202 19.3-3.807 37.16-12.643 51.65-25.553 3.093-2.755 3.366-7.497.61-10.589-2.754-3.092-7.495-3.366-10.589-.611-12.49 11.128-27.903 18.748-44.574 22.036-10.743 2.119-20.424 7.999-27.261 16.558-2.741 3.435-8.066 3.623-11.291.397l-4.297-4.297c8.975-14.21 23.257-24.082 39.945-27.374 31.932-6.299 56.369-30.874 62.253-62.609 3.513-18.94 15.34-35.557 32.036-45.376l4.273 4.273c3.223 3.222 2.895 8.622-.862 11.337-10.925 7.896-18.276 19.438-20.698 32.5-2.068 11.154-6.058 21.682-11.861 31.292-2.141 3.546-1.002 8.156 2.544 10.297 3.547 2.141 8.156 1.002 10.297-2.544 6.737-11.16 11.37-23.376 13.767-36.31 1.691-9.12 7.063-17.531 14.737-23.077 11.103-8.024 12.541-24.245 2.682-34.102l-42.714-42.716c-4.249-4.248-9.899-6.588-15.91-6.588-5.363 0-10.564 1.92-14.646 5.407-24.299 20.751-41.331 49.297-47.383 81.932-.366 1.973-2.239 2.547-3.027 2.703-29.162 5.753-55.091 20.479-74.98 42.588-7.869 8.745-7.694 22.334.874 30.905zm118.799-172.008 10.855 10.856c-18.673 12.199-31.824 31.586-35.894 53.531-4.758 25.653-24.544 45.526-50.408 50.627-19.655 3.877-36.645 15.077-47.877 31.257l-10.729-10.729c13.474-18.135 33.466-30.857 55.702-35.243 19.797-3.905 34.934-19.075 38.563-38.646 4.737-25.541 19.371-47.388 39.788-61.653zm-150.888 108.769c17.703-19.677 40.778-32.784 66.732-37.904 7.659-1.51 13.498-7.273 14.872-14.683 5.436-29.309 20.747-54.79 42.377-73.263 2.931-2.504 7.378-2.447 10.208.383l5.954 5.954c-22.531 16.547-38.499 41.116-43.792 69.66-2.502 13.49-12.989 23.957-26.718 26.665-25.158 4.963-47.848 19.089-63.503 39.257l-5.802-5.803c-2.858-2.86-2.922-7.384-.328-10.266z"/><path d="m273.561 405.301c-11.766 3.159-18.733 15.237-15.572 27.005 1.075 4.003 5.192 6.373 9.188 5.298 4-1.074 6.373-5.188 5.298-9.188-1.009-3.758 1.216-7.618 4.976-8.627 3.753-1.011 7.618 1.212 8.628 4.975 1.074 4 5.189 6.37 9.188 5.299 4-1.074 6.373-5.188 5.299-9.188-3.159-11.766-15.237-18.734-27.005-15.574z"/><path d="m399.111 371.593c-11.737 3.152-18.724 15.266-15.572 27.004 1.073 4.001 5.186 6.373 9.188 5.299 4-1.074 6.373-5.188 5.299-9.188-1.006-3.75 1.226-7.622 4.976-8.628 3.748-1.006 7.621 1.224 8.629 4.976 1.074 4.001 5.191 6.374 9.188 5.298 4-1.074 6.372-5.188 5.298-9.188-3.154-11.74-15.273-18.727-27.006-15.573z"/><path d="m382.234 414.972c-7.196-26.799-31.624-20.24-43.363-17.088-11.74 3.152-36.168 9.711-28.974 36.51 5.962 22.206 27.092 35.19 46.804 29.9 19.942-5.355 31.396-27.481 25.533-49.322zm-29.424 34.835c-12.026 3.234-24.736-5.556-28.426-19.302-2.521-9.389-.315-13.115 18.375-18.133 18.689-5.019 22.467-2.898 24.988 6.49 3.719 13.853-2.982 27.735-14.937 30.945z"/></g></g></svg>