<svg id="Layer_1" enable-background="new 0 0 512.003 512.003" height="512" viewBox="0 0 512.003 512.003" width="512" xmlns="http://www.w3.org/2000/svg"><g><g><path d="m114.849 398.017c16.242-2.054 32.17-4.829 47.602-10.349-15.821-8.973-29.748-19.893-41.446-32.533-33.616-36.319-48.362-86.284-43.83-148.507 5.143-70.6 49.123-105.36 87.812-107.779 16.915-1.061 33.781 4.207 47.378 14.283 10.936-20.138 25.938-38.928 44.047-53.014-27.022-21.151-61.412-32.242-95.718-30.111-38.37 2.4-74.73 20.156-102.38 49.999-29.078 31.382-46.303 73.432-49.812 121.603-5.979 82.075 14.884 149.508 62.011 200.424 5.929 6.406 12.319 12.531 19.064 18.311 3.31-12.047 12.853-20.722 25.272-22.327z" fill="#f0a346"/><g><g><path d="m121.005 355.135c-33.616-36.319-48.362-86.284-43.83-148.507 4.45-61.087 37.976-95.336 71.992-105.025-7.806-2.284-15.986-3.268-24.18-2.754-38.689 2.419-82.669 37.179-87.812 107.779-4.532 62.224 10.214 112.189 43.83 148.507 10.784 11.651 33.33 30.372 55.988 39.399 8.611-1.7 17.108-3.879 25.458-6.866-15.821-8.973-29.748-19.894-41.446-32.533z" fill="#eb8f21"/></g><path d="m160.694 30.007c-3.898.244-7.773.654-11.622 1.212 18.358 2.692 36.131 9.028 52.123 18.503 7.731 4.581 8.867 15.288 2.451 21.58-8.698 8.529-16.468 18.135-23.175 28.323 11.486 1.86 22.475 6.527 31.894 13.507 10.936-20.138 25.938-38.927 44.047-53.015-27.022-21.15-61.412-32.241-95.718-30.11z" fill="#eb8f21"/></g><g fill="#f0a346"><path d="m289.798 434.96c-12.386-7.485-23.083-21.284-37.549-21.652-9.171 7.986-18.989 15.185-29.368 21.479-2.88 1.836-31.641 19.786-63.228 25.174-1.397.294-2.796.568-4.197.83 32.363 13.715 68.667 21.55 100.334 21.55h.81c32.951 0 68.611-7.603 100.944-21.435-23.878-4.389-47.143-12.961-67.746-25.946z"/><path d="m289.798 434.96c-12.386-7.485-23.083-21.284-37.549-21.652-9.171 7.986-18.989 15.185-29.368 21.479-2.88 1.836-31.641 19.786-63.228 25.174-1.397.294-2.796.568-4.197.83 32.363 13.715 68.667 21.55 100.334 21.55h.81c32.951 0 68.611-7.603 100.944-21.435-23.878-4.389-47.143-12.961-67.746-25.946z"/><path d="m422.784 420.255c-3.365-12.113-12.363-20.901-25.131-22.274-36.853-3.952-76.323-19.284-103.318-45.807-11.284 20.07-21.164 42.095-38.139 57.63 36.206 33.138 83.686 53.721 133.049 54.176 22.36-.262 39.671-21.65 33.539-43.725z"/><path d="m503.934 202.28c-2.56-48.061-19.103-90.134-47.84-121.671-51.414-56.422-138.236-68.29-199.683-20.492-37.121 28.876-58.304 73.897-67.307 119.11-11.845 59.477-5.832 122.938 24.184 176.327 21.792-21.409 36.597-50.021 42.909-79.769-13.167-62.057 6.843-183.202 93.22-176.954 55.214 3.997 83.159 58.332 85.758 107.125 3.425 64.293-12.211 115.297-46.473 151.593-11.048 11.704-23.984 21.848-38.507 30.22 15.47 5.497 31.549 8.086 47.778 10.251 12.6 1.642 21.414 10.009 24.811 22.236 5.547-4.841 10.896-9.961 15.95-15.316 47.733-50.569 69.669-118.753 65.2-202.66z"/></g><g fill="#eb8f21"><path d="m503.934 202.28c-2.56-48.061-19.103-90.134-47.84-121.671-34.399-37.75-84.648-55.55-132.544-48.885 34.545 4.74 67.684 21.603 92.544 48.885 28.737 31.537 45.28 73.61 47.84 121.671 4.307 80.865-15.922 147.119-60.12 197.083 9.478 3.145 16.127 10.658 18.97 20.892 5.547-4.841 10.896-9.961 15.95-15.316 47.733-50.568 69.669-118.752 65.2-202.659z"/><path d="m323.557 101.074c-4.498-1.12-9.208-1.886-14.14-2.243-86.378-6.248-106.388 114.898-93.22 176.954-3.475 16.378-9.538 32.403-17.911 47.08 4.102 11.215 9.077 22.151 15.002 32.689 21.792-21.409 36.597-50.021 42.909-79.769-11.736-55.31 2.885-157.556 67.36-174.711z"/></g><path d="m323.289 179.227c-4.852-24.366-13.189-47.313-23.621-66.72-25.38 18.838-37.789 52.471-43.472 82.489 10.747 56.765-.564 118.957-42.908 160.557-27.517 27.033-61.299 37.767-98.439 42.463-40.268 5.202-30.367 66.267 8.229 65.963 10.737-.099 21.607-1.174 32.379-3.19 129.723-24.264 192.019-160.109 167.832-281.562z" fill="#f0a346"/><path d="m323.289 179.227c-4.852-24.366-13.189-47.313-23.621-66.72-10.988 8.156-19.541 19.086-26.173 31.294 4.028 11.27 7.353 23.168 9.794 35.426 24.186 121.453-38.11 257.298-167.832 281.563-1.653.309-3.309.589-4.965.854 3.761 1.522 7.966 2.373 12.586 2.336 10.737-.099 21.607-1.174 32.379-3.19 129.722-24.265 192.019-160.11 167.832-281.563z" fill="#eb8f21"/><g><path d="m192.036 473.348c21.657 5.821 43.641 8.992 63.755 8.992h.81c32.951 0 68.611-7.603 100.944-21.435-13.974-2.568-27.732-6.58-40.874-12.059-33.458 13.491-75.434 24.219-124.635 24.502z" fill="#eb8f21"/></g></g><g><path d="m511.423 201.881c-2.653-49.811-19.869-93.493-49.786-126.324-30.921-33.934-73.752-53.396-117.51-53.396-31.092 0-62.013 10.117-87.705 28.588-28.112-20.349-62.046-30.354-96.197-28.229-18.644 1.166-36.872 5.755-54.177 13.64-3.77 1.718-5.433 6.166-3.716 9.935 1.718 3.769 6.164 5.431 9.935 3.715 15.633-7.123 32.083-11.268 48.891-12.319 28.841-1.786 58.609 6.537 83.043 23.016-14.28 12.588-25.547 26.987-34.431 41.911-13.758-8.144-29.546-12.043-45.252-11.056-41.835 2.616-89.354 39.632-94.823 114.72-4.689 64.38 10.723 116.242 45.806 154.146 8.54 9.227 18.26 17.575 28.974 24.978-10.7 2.628-21.197 4.184-30.587 5.372-11.022 1.424-21.493 7.371-27.183 17.085-3.724-3.499-7.312-7.078-10.689-10.727-45.659-49.33-65.857-114.865-60.035-194.785 3.953-54.266 27.386-102.546 64.29-132.459 3.218-2.608 3.712-7.331 1.104-10.549s-7.331-3.711-10.549-1.104c-40.109 32.513-65.552 84.643-69.804 143.024-6.137 84.231 15.392 153.561 63.986 206.063 5.186 5.603 10.806 11.058 16.71 16.286-2.417 24.414 16.146 48.279 41.429 48.067 10.412-.096 20.989-1.088 31.476-2.927 32.692 13.534 69.427 21.288 101.168 21.288h.811c33.07 0 69.125-7.521 101.802-21.176 10.272 1.767 20.612 2.721 30.771 2.815h.069.087c13.17-.154 25.796-6.589 33.775-17.214 6.862-9.139 9.647-20.33 7.922-31.32 4.599-4.164 9.018-8.47 13.16-12.857 49.197-52.12 71.818-122.171 67.235-208.207zm-384.913 148.16c-32.147-34.732-46.229-82.799-41.855-142.868 4.816-66.113 45.26-98.616 80.801-100.839 12.872-.809 25.835 2.468 37.122 9.272-10.833 21.701-17.153 43.696-20.829 62.156-12.563 63.081-4.672 125.422 22.187 176.293-12.165 11.035-25.834 19.542-40.751 25.334-13.93-8.258-26.27-18.105-36.675-29.348zm-3.491 106.439c-.064 0-.127.001-.191.001-12.171-.001-25.053-9.158-26.255-26.76-.713-10.438 3.966-22.292 19.217-24.263 47.893-6.057 90.917-24.336 119.748-64.416 30.59-42.525 37.612-96.564 28.065-147.23 5.177-24.15 15.867-51.305 34.239-68.641 33.292 69.621 32.726 159.117-5.273 226.705-33.938 60.362-99.332 103.959-169.55 104.604zm226.408-76.995c-14.989-5.787-28.732-14.328-40.968-25.431 12.206-23.066 20.552-48.256 24.822-74.973 5.181-32.429 4.294-66.518-2.636-101.318-4.484-22.512-11.417-43.274-20.625-61.838 11.841-7.141 25.396-10.587 38.855-9.614 50.683 3.669 76.381 54.432 78.811 100.043 3.311 62.163-11.64 111.3-44.437 146.046-9.758 10.338-21.136 19.426-33.822 27.085zm61.685 65.773c-5.187 6.907-13.361 11.097-21.88 11.221-19.516-.19-39.101-3.756-57.578-9.989-9.188-3.098-13.984 11.114-4.795 14.213 1.749.59 3.513 1.159 5.289 1.704-25.025 8.083-51.171 12.433-75.546 12.433h-.811c-23.465 0-49.902-4.542-75.168-12.702 27.068-8.623 53.103-23.004 74.476-41.306.773.005 1.54.026 2.321.021 8.989 7.625 18.565 14.522 28.499 20.525 7.955 4.807 16.271-7.693 7.758-12.838-9.185-5.55-18.037-11.933-26.365-18.98 12.619-12.494 24.032-26.85 33.528-42.196 13.952 12.129 29.628 21.335 46.716 27.424.006.002.012.005.019.007.037.013.073.027.109.04 14.458 5.137 30.542 8.605 49.167 10.602 19.004 2.045 24.632 26.009 14.261 39.821zm22.169-45.467c-2.502 2.651-5.116 5.272-7.811 7.849-5.874-9.682-15.423-15.869-27.017-17.116-11.091-1.189-21.175-2.923-30.48-5.245 9.571-6.74 18.351-14.285 26.184-22.582 35.726-37.848 52.046-90.717 48.507-157.14-2.768-51.973-32.959-109.881-92.707-114.207-22.376-1.622-47.657 7.07-63.231 23.694-35.526 37.753-50.44 100.681-38.198 160.706-4.549 20.425-13.233 39.941-25.168 56.532-2.631 3.658-5.422 7.174-8.349 10.519-23.485-47.039-30.092-104.166-18.553-162.109 7.945-39.9 24.541-74.234 47.529-98.995 25.691-27.588 62.22-44.535 100.14-44.535 39.547 0 78.337 17.677 106.423 48.499 27.557 30.241 43.427 70.706 45.894 117.018 4.356 81.776-16.895 148.094-63.163 197.112z"/><path d="m222.002 281.34c-9.652 0-9.668 15 0 15 9.652 0 9.668-15 0-15z"/><path d="m218.002 219.34c-9.652 0-9.668 15 0 15 9.652 0 9.668-15 0-15z"/><path d="m229.002 154.34c-9.652 0-9.668 15 0 15 9.652 0 9.668-15 0-15z"/><path d="m261.002 95.34c-9.652 0-9.668 15 0 15 9.652 0 9.668-15 0-15z"/><path d="m312.002 61.34c-9.652 0-9.668 15 0 15 9.652 0 9.668-15 0-15z"/><path d="m372.002 60.34c-9.652 0-9.668 15 0 15 9.652 0 9.668-15 0-15z"/><path d="m428.002 94.34c-9.652 0-9.668 15 0 15 9.652 0 9.668-15 0-15z"/><path d="m460.002 167.34c9.652 0 9.668-15 0-15-9.652 0-9.668 15 0 15z"/><path d="m470.002 219.34c-9.652 0-9.668 15 0 15 9.652 0 9.668-15 0-15z"/><path d="m460.002 285.34c-9.652 0-9.668 15 0 15 9.652 0 9.668-15 0-15z"/><path d="m435.002 345.34c-9.652 0-9.668 15 0 15 9.652 0 9.668-15 0-15z"/><path d="m289.002 296.34c9.652 0 9.668-15 0-15-9.652 0-9.668 15 0 15z"/><path d="m293.002 234.34c9.652 0 9.668-15 0-15-9.652 0-9.668 15 0 15z"/><path d="m199.002 61.34c-9.652 0-9.668 15 0 15 9.652 0 9.668-15 0-15z"/><path d="m139.002 60.34c-9.652 0-9.668 15 0 15 9.652 0 9.668-15 0-15z"/><path d="m83.002 109.34c9.652 0 9.668-15 0-15-9.652 0-9.668 15 0 15z"/><path d="m51.002 152.34c-9.652 0-9.668 15 0 15 9.652 0 9.668-15 0-15z"/><path d="m41.002 219.34c-9.652 0-9.668 15 0 15 9.652 0 9.668-15 0-15z"/><path d="m51.002 300.34c9.652 0 9.668-15 0-15-9.652 0-9.668 15 0 15z"/><path d="m76.002 345.34c-9.652 0-9.668 15 0 15 9.652 0 9.668-15 0-15z"/><path d="m260.002 357.34c9.652 0 9.668-15 0-15-9.652 0-9.668 15 0 15z"/><path d="m211.002 408.34c9.652 0 9.668-15 0-15-9.652 0-9.668 15 0 15z"/><path d="m146.002 418.34c-9.652 0-9.668 15 0 15 9.652 0 9.668-15 0-15z"/><path d="m305.002 394.34c-9.652 0-9.668 15 0 15 9.652 0 9.668-15 0-15z"/><path d="m370.002 419.34c-9.652 0-9.668 15 0 15 9.652 0 9.668-15 0-15z"/></g></g></svg>