<svg id="Capa_1" enable-background="new 0 0 512.021 512.021" height="512" viewBox="0 0 512.021 512.021" width="512" xmlns="http://www.w3.org/2000/svg"><g><path d="m483.957 133.067c-5.924-18.233-4.056-40.593-15.101-55.774-11.155-15.332-33.083-20.422-48.404-31.577-15.181-11.044-26.737-30.382-44.971-36.306-17.591-5.703-38.224 2.962-57.722 2.962-15.984 0-32.722-5.823-47.923-4.789-3.354.231-6.627.793-9.799 1.827-18.233 5.924-29.79 25.261-44.971 36.306-15.322 11.155-37.25 16.245-48.404 31.577-11.052 15.192-9.174 37.53-15.101 55.774-5.713 17.591-20.553 34.509-20.553 54.007 0 19.488 14.84 36.406 20.553 53.997 5.924 18.233 4.056 40.603 15.101 55.774 11.155 15.332 33.083 20.422 48.404 31.577 15.181 11.044 26.737 30.382 44.971 36.306 17.591 5.713 38.224-2.952 57.722-2.952s40.131 8.665 57.722 2.952c18.23-5.923 29.783-25.257 44.971-36.306 15.322-11.155 37.25-16.245 48.404-31.577 11.044-15.171 9.177-37.541 15.101-55.774 1.345-4.127 3.183-8.213 5.221-12.299 6.637-13.364 15.332-26.778 15.332-41.698-.001-19.499-14.84-36.417-20.553-54.007z" fill="#c97c48"/><path d="m382.423 263.775c-5.142-15.829-3.226-41.383-18.39-62.225-10.291-14.145-24.837-21.404-37.67-27.809-15.456-7.713-16.971-8.826-28.88-20.995-10.086-10.305-21.518-21.983-38.377-27.461-15.451-5.008-30.195-2.971-46.146-.339-17.553 2.896-19.844 2.896-37.404-.003-7.08-1.169-14.178-2.273-21.326-2.612-.704 3.675-1.546 7.28-2.669 10.735-5.713 17.591-20.553 34.509-20.553 54.007 0 19.488 14.84 36.406 20.553 53.997 5.924 18.233 4.056 40.603 15.101 55.774 11.155 15.332 33.083 20.422 48.404 31.577 15.181 11.044 26.737 30.382 44.971 36.306 17.591 5.713 38.224-2.952 57.722-2.952s40.131 8.665 57.722 2.952c9.56-3.106 17.284-9.901 24.658-17.253 2.36-6.954 3.967-14.465 3.967-22.557 0-26.269-16.908-46.445-21.683-61.142z" fill="#c16d35"/><path d="m251.984 502.572c18.233-5.924 29.79-25.262 44.971-36.306 15.322-11.155 37.25-16.245 48.404-31.577 11.044-15.171 9.177-37.541 15.101-55.774 5.754-17.649 20.553-34.518 20.553-53.997 0-19.498-14.84-36.416-20.553-54.007-5.924-18.233-4.056-40.593-15.101-55.774-11.155-15.332-33.083-20.422-48.404-31.577-15.181-11.044-26.737-30.382-44.971-36.306-10.072-3.265-21.142-1.82-32.425.012-21.616 7.598-51.028 21.651-62.433 29.948-16.271 11.846-39.559 17.253-51.405 33.535-11.729 16.122-9.746 39.868-16.037 59.232-6.067 18.681-21.827 36.648-21.827 57.355 0 20.697 15.76 38.663 21.827 57.345 6.291 19.364 4.308 43.12 16.037 59.232 11.846 16.282 35.134 21.688 51.405 33.534 9.05 6.584 37.135 17.869 55.567 24 13.632 2.177 27.182 5.057 39.291 1.125z" fill="#cf8c5d"/><path d="m187.248 477.447c-16.271-11.846-39.559-17.252-51.405-33.534-11.729-16.112-9.746-39.868-16.037-59.232-6.067-18.681-21.827-36.648-21.827-57.345 0-20.707 15.76-38.674 21.827-57.355 6.291-19.364 4.308-43.11 16.037-59.232 11.846-16.282 35.134-21.688 51.405-33.535 11.405-8.297 20.886-20.997 32.311-29.948-8.422 1.367-16.963 2.95-25.297 2.95-19.514 0-40.171-8.682-57.722-2.962-18.233 5.924-29.79 25.261-44.971 36.306-15.322 11.155-37.25 16.245-48.404 31.577-11.044 15.181-9.177 37.541-15.101 55.774-5.713 17.591-20.553 34.509-20.553 54.007 0 19.488 14.84 36.406 20.553 53.997 5.924 18.233 4.056 40.603 15.101 55.774 11.155 15.332 33.083 20.422 48.404 31.577 15.181 11.044 26.737 30.382 44.971 36.306 17.591 5.713 38.224-2.952 57.722-2.952 6.076 0 12.262.842 18.432 1.827-8.558-8.057-16.396-17.416-25.446-24z" fill="#c97c48"/><path d="m165.648 384.035c0-15.553-13.645-24.689-29.224-28.308-26.805-1.813-36.206 15.767-36.206 31.32s5.857 36.48 36.206 37.967c15.579-7.865 29.224-25.426 29.224-40.979z" fill="#f6ef9a"/><path d="m113.536 384.035c0-15.553 9.433-24.689 22.888-28.308-5.249-1.219-10.717-1.813-15.958-1.813-20.794 0-37.651 9.327-37.651 30.121s16.858 45.182 37.651 45.182c5.241 0 10.709-1.552 15.958-4.202-13.455-7.866-22.888-25.427-22.888-40.98z" fill="#f5db7f"/><path d="m282.01 330.161c-25.247-6.368-43.068 2.767-43.068 20.071 0 10.315 6.192 28.615 24.219 32.912 20.985-5.641 43.739-37.76 18.849-52.983z" fill="#f6ef9a"/><path d="m250.07 354.226c0-17.302 14.571-24.625 31.94-24.064-17.138-10.482-55.368-10.361-55.368 17.729 0 16.637 13.484 36.145 30.121 36.145 2.102 0 4.249-.313 6.398-.891-7.904-7.189-13.091-18.604-13.091-28.919z" fill="#f5db7f"/><path d="m442.972 202.36c9.824-9.824 11.439-30.669 4.861-44.136-11.096-7.627-27.351-1.671-35.569 6.555-10.484 10.475-18.826 26.983-2.357 41.913 11.489 4.261 25 3.733 33.065-4.332z" fill="#f6ef9a"/><path d="m417.449 172.309c8.219-8.226 20.012-14.851 30.383-14.085-1.302-2.665-2.917-5.046-4.861-6.99-11.757-11.757-30.834-3.243-42.591 8.524-11.767 11.757-16.024 26.577-4.267 38.334 3.696 3.696 8.532 6.649 13.793 8.6-7.452-11.005-2.94-23.908 7.543-34.383z" fill="#f5db7f"/><path d="m329.044 105.315c8.479-8.479 9.538-26.93 3.177-37.893-8.689-6.058-22.972 2.682-28.163 7.873-10.117 10.117-11.208 28.616 6.599 35.618 6.92.645 13.748-.959 18.387-5.598z" fill="#f6ef9a"/><path d="m313.311 78.527c5.19-5.19 12.113-9.612 18.91-11.106-.908-1.565-1.967-2.977-3.177-4.186-9.679-9.689-25.382-2.671-35.061 7.008-9.689 9.689-13.193 21.878-3.514 31.567 5.045 5.04 12.671 8.399 20.188 9.101-.294-.268-.582-.54-.861-.818-9.678-9.688-6.174-21.877 3.515-31.566z" fill="#f5db7f"/><path d="m274.144 237.075c16.275 0 29.468 10.502 29.468 23.464s-13.193 23.474-29.468 23.474c-16.285 0-29.478-10.512-29.478-23.474-.001-12.962 13.192-23.464 29.478-23.464z" fill="#fff"/><path d="m114.382 237.075c16.285 0 29.478 10.502 29.478 23.464s-13.193 23.474-29.478 23.474c-16.275 0-29.468-10.512-29.468-23.474-.001-12.962 13.192-23.464 29.468-23.464z" fill="#fff"/><path d="m139.06 237.948v-12.048c0-4.143-3.357-7.5-7.5-7.5s-7.5 3.357-7.5 7.5v12.048c0 4.143 3.357 7.5 7.5 7.5s7.5-3.357 7.5-7.5z"/><path d="m264.465 237.948v-12.048c0-4.143-3.357-7.5-7.5-7.5s-7.5 3.357-7.5 7.5v12.048c0 4.143 3.357 7.5 7.5 7.5s7.5-3.357 7.5-7.5z"/><path d="m194.263 252.617c8.513 0 16.6-3.685 22.186-10.108 2.719-3.126 2.388-7.863-.737-10.581-3.126-2.718-7.863-2.388-10.581.737-5.729 6.59-15.987 6.61-21.734.001-2.717-3.127-7.455-3.457-10.58-.738-3.126 2.718-3.457 7.455-.738 10.58 5.584 6.424 13.67 10.109 22.184 10.109z"/><path d="m491.09 130.809c-5.71-17.575-3.739-40.792-16.169-57.87-12.54-17.233-35.326-22.503-50.058-33.228-14.631-10.646-26.559-30.714-47.066-37.375-19.819-6.439-41.224 2.585-60.038 2.585-19.223 0-42.013-9.561-61.605-2.031-3.867 1.484-5.798 5.823-4.312 9.689 1.483 3.866 5.823 5.798 9.689 4.312 14.545-5.578 36.27 3.029 56.229 3.029 20.023 0 40.139-8.278 55.404-3.319 15.945 5.18 27.175 23.817 42.874 35.237 15.821 11.516 37.02 16.547 46.756 29.927 9.617 13.212 7.932 34.902 14.031 53.677 5.924 18.241 20.186 34.577 20.186 51.681 0 17.106-14.263 33.45-20.186 51.689-6.107 18.801-4.408 40.45-14.032 53.68-9.744 13.392-30.921 18.397-46.753 29.925-13.204 9.604-23.245 24.31-35.589 31.822 4.431-9.105 8.062-18.655 8.062-29.322 0-14.144-6.382-26.328-12.553-38.111-8.481-16.195-9.644-19.472-12.557-38.704-1.969-12.987-4.005-26.418-11.979-37.378-12.523-17.215-35.334-22.514-50.057-33.229-14.627-10.643-26.565-30.714-47.069-37.376-19.826-6.426-41.218 2.597-60.035 2.597-11.19 0-24.4-3.416-36.529-4.531 3.079-8.281 4.383-16.832 5.715-25.62 1.777-11.727 3.456-22.803 9.277-30.8 5.897-8.104 15.951-13.122 26.595-18.434 18.635-9.302 22.793-12.378 37.021-26.909l.096-.098c2.898-2.959 2.849-7.708-.111-10.605-2.959-2.9-7.709-2.847-10.605.111-4.633 4.731-9.756 10.019-15.069 13.883-14.767 10.749-37.508 15.983-50.054 33.226-7.976 10.956-10.012 24.388-11.98 37.378-1.774 11.704-2.826 18.519-7.24 28.115-16.669 2.565-27.547 13.326-39.193 25.223-13.122 13.407-15.946 15.499-33.06 24.039-11.786 5.882-23.974 11.964-32.025 23.031-12.432 17.088-10.455 40.282-16.169 57.87-1.914 5.894-5.049 11.877-8.366 18.213-6.172 11.783-12.554 23.967-12.554 38.11 0 21.882 15.418 39.378 20.92 56.314 5.71 17.575 3.739 40.792 16.169 57.87 12.529 17.218 35.344 22.516 50.058 33.228 14.631 10.646 26.559 30.714 47.066 37.375 12.573 4.085 25.734 1.953 38.812-.203 19.241-3.172 23.162-3.18 42.451 0 12.86 2.12 26.158 4.312 38.813.203 20.499-6.659 32.454-26.744 47.06-37.37 1.471-1.068 3.022-2.093 4.745-3.134 3.545-2.144 4.682-6.754 2.539-10.299-2.144-3.546-6.754-4.679-10.299-2.539-2.087 1.262-3.983 2.516-5.804 3.838-15.714 11.433-26.925 30.056-42.875 35.238-15.264 4.954-35.404-3.319-55.405-3.319-20.027 0-40.138 8.279-55.404 3.319-15.948-5.181-27.162-23.805-42.874-35.237-15.821-11.516-37.02-16.547-46.756-29.927-9.617-13.212-7.932-34.902-14.031-53.677-5.91-18.206-20.186-34.585-20.186-51.681 0-17.106 14.263-33.45 20.186-51.689 6.107-18.801 4.408-40.45 14.032-53.68 9.744-13.392 30.921-18.397 46.753-29.925 15.705-11.424 26.928-30.056 42.883-35.239 15.192-4.95 35.414 3.331 55.397 3.331 19.993 0 40.142-8.277 55.404-3.329 15.946 5.181 27.169 23.811 42.874 35.236 15.818 11.516 37.02 16.547 46.754 29.926 5.821 8.002 7.5 19.077 9.277 30.802 3.16 20.846 4.825 25.707 14.1 43.416 5.575 10.645 10.841 20.698 10.841 31.151 0 17.071-14.225 33.399-20.185 51.68-6.08 18.716-4.425 40.481-14.034 53.68-2.454 3.374-5.841 6.478-10.354 9.487-3.446 2.299-4.377 6.955-2.079 10.401 2.3 3.446 6.957 4.378 10.401 2.079 19.258-12.845 22.658-27.536 26.142-50.521 1.782-11.754 2.822-18.507 7.254-28.14 25.232-3.886 37.832-27.125 54.208-39.039 14.77-10.752 37.508-15.982 50.056-33.229 12.432-17.088 10.455-40.282 16.169-57.87 5.497-16.927 20.92-34.434 20.92-56.323 0-21.88-15.419-39.376-20.92-56.313z"/><path d="m75.314 384.035c0 24.362 19.723 52.682 45.151 52.682 25.11 0 52.682-27.571 52.682-52.682 0-24.698-26.502-37.621-52.682-37.621-27.428 0-45.151 14.767-45.151 37.621zm82.833 0c0 16.552-21.13 37.682-37.682 37.682-16.238 0-30.151-20.72-30.151-37.682 0-20.417 21.086-22.621 30.151-22.621 14.569 0 37.682 6.141 37.682 22.621z"/><path d="m219.143 347.89c0 20.183 16.434 43.645 37.621 43.645 20.803 0 43.646-22.842 43.646-43.645 0-20.744-21.956-31.598-43.646-31.598-22.854.001-37.621 12.403-37.621 31.598zm37.621-16.597c11.075 0 28.646 4.506 28.646 16.598 0 12.582-16.062 28.645-28.646 28.645-11.971 0-22.621-16.019-22.621-28.645 0-14.442 14.172-16.598 22.621-16.598z"/><path d="m448.274 207.663c14.675-14.675 14.777-46.956.001-61.732-14.917-14.917-38.155-6.53-53.195 8.522-7.266 7.259-11.781 15.311-13.06 23.285-1.525 9.51 1.515 18.382 8.79 25.657 14.527 14.527 42.496 19.239 57.464 4.268zm-51.443-27.55c1.987-12.398 19.937-27.016 32.291-27.016 5.106 0 7.581 2.476 8.546 3.44 8.822 8.822 8.829 31.692 0 40.519-3.76 3.763-10.039 5.418-17.217 4.546-7.285-.885-14.399-4.179-19.033-8.813-3.839-3.838-5.339-7.984-4.587-12.676z"/><path d="m334.348 110.619c12.596-12.598 12.675-40.018.001-52.685-12.828-12.84-32.707-5.954-45.669 7.006-13.87 13.871-15.251 30.425-3.512 42.178 12.593 12.577 36.229 16.449 49.18 3.501zm-35.061-35.071c6.267-6.267 18.212-13.258 24.45-7.011.002.002.004.004.006.006 6.749 6.74 6.749 24.719-.003 31.469-6.467 6.469-21.03 3.427-27.965-3.501-7.209-7.216-2.069-15.383 3.512-20.963z"/></g></svg>