<svg id="Capa_1" enable-background="new 0 0 512.016 512.016" height="512" viewBox="0 0 512.016 512.016" width="512" xmlns="http://www.w3.org/2000/svg"><g><path d="m500.424 211.464c-8.764-48.376-51.076-83.441-100.235-83.441h-16.242v-16.242c0-40.953-24.346-77.135-60.439-93.147-96.03-5.553-157.899 101.86-104.811 175.703 10.861-8.435 23.906-13.612 37.941-13.612 37.805 0 82.136 37.484 82.136 75.289s-44.33 75.289-82.136 75.289c-11.719 0-22.749-3.609-32.393-9.71-69.177 70.563-5.934 176.852 120.731 166.608 107.84-41.15 177.516-154.826 155.448-276.737z" fill="#cf8c5d"/><g><path d="m224.244 321.594c-21.459-13.573-36.05-39.497-36.05-65.58 0-23.766 12.117-47.398 30.502-61.678 12.613-70.763 50.873-132.638 104.811-175.703-7.232-3.208-14.926-5.625-23.001-7.088-152.893-27.676-293.006 89.008-293.006 244.47 0 137.217 111.237 248.455 248.455 248.455 31.562 0 61.531-5.777 89.021-16.267-58.363-38.46-102.017-97.405-120.732-166.609z" fill="#c97c48"/></g><g fill="#f6ef9a"><path d="m262.791 76.274c7.408 3.775 10.35 12.839 6.575 20.248-3.754 7.365-12.785 10.385-20.248 6.585l-13.422-6.836c-7.408-3.775-10.35-12.849-6.575-20.258s12.839-10.35 20.248-6.575z"/><path d="m444.178 225.909c0 6.344-4.046 12.247-10.41 14.315l-14.315 4.658c-7.91 2.57-16.413-1.767-18.983-9.677-2.57-7.9 1.767-16.403 9.667-18.973l14.325-4.648c9.761-3.171 19.716 4.146 19.716 14.325z"/><path d="m411.733 325.411c7.408 3.775 10.35 12.849 6.575 20.258-3.782 7.421-12.842 10.346-20.248 6.575l-13.422-6.836c-7.408-3.775-10.35-12.839-6.575-20.248 3.774-7.408 12.839-10.36 20.248-6.585z"/></g><path d="m335.822 397.308c16.273 0 29.463 10.5 29.463 23.46s-13.191 23.47-29.463 23.47c-16.283 0-29.473-10.51-29.473-23.47-.001-12.96 13.19-23.46 29.473-23.46z" fill="#fff"/><path d="m176.088 397.308c16.283 0 29.473 10.5 29.473 23.46s-13.191 23.47-29.473 23.47c-16.273 0-29.463-10.51-29.463-23.47s13.19-23.46 29.463-23.46z" fill="#fff"/><path d="m165.608 138.433c0 6.344-4.046 12.247-10.41 14.315l-14.315 4.648c-7.91 2.57-16.413-1.757-18.983-9.667s1.767-16.403 9.667-18.973l14.325-4.658c9.757-3.17 19.716 4.156 19.716 14.335z" fill="#f6ef9a"/><path d="m119.741 287.084c7.408 3.775 10.35 12.839 6.575 20.248-3.754 7.365-12.785 10.385-20.248 6.585l-13.422-6.836c-7.408-3.775-10.35-12.849-6.575-20.258 3.775-7.408 12.839-10.35 20.248-6.575z" fill="#f6ef9a"/><g><path d="m232.293 102.954 13.422 6.837c11.081 5.642 24.688 1.214 30.334-9.864 5.646-11.082 1.226-24.69-9.854-30.336l-13.421-6.835c-11.106-5.658-24.676-1.257-30.334 9.854-5.661 11.105-1.258 24.683 9.853 30.344zm3.512-23.535c1.891-3.711 6.429-5.2 10.161-3.297l13.421 6.835c3.709 1.89 5.188 6.448 3.297 10.16-1.892 3.713-6.451 5.196-10.161 3.308l-13.421-6.836c-3.671-1.87-5.217-6.403-3.297-10.17z"/><path d="m109.725 273.565c-11.081-5.646-24.689-1.226-30.335 9.854-5.658 11.105-1.258 24.683 9.854 30.346l13.422 6.836c11.083 5.643 24.689 1.214 30.333-9.864 5.646-11.082 1.227-24.69-9.854-30.335zm9.909 30.362c-1.892 3.715-6.448 5.197-10.161 3.307l-13.421-6.835c-3.698-1.884-5.202-6.432-3.297-10.171 1.894-3.716 6.454-5.185 10.161-3.297l13.421 6.836c3.716 1.894 5.194 6.437 3.297 10.16z"/><path d="m394.658 358.928c11.1 5.653 24.699 1.199 30.333-9.855 5.647-11.085 1.229-24.697-9.854-30.346l-13.421-6.835c-11.077-5.647-24.687-1.221-30.335 9.862v.001c-5.646 11.082-1.226 24.69 9.854 30.335zm-9.912-30.363c1.893-3.714 6.448-5.198 10.162-3.307l13.42 6.835c3.712 1.892 5.191 6.454 3.298 10.17-1.89 3.71-6.451 5.188-10.161 3.299l-13.422-6.837c-3.709-1.889-5.188-6.447-3.297-10.16z"/><path d="m114.767 150.046c3.843 11.831 16.596 18.326 28.433 14.484l14.315-4.649c11.827-3.843 18.324-16.593 14.483-28.423-3.846-11.835-16.596-18.333-28.426-14.492l-14.326 4.658c-11.825 3.846-18.32 16.596-14.479 28.422zm19.118-14.158 14.324-4.657c3.955-1.289 8.234.894 9.522 4.859 1.287 3.965-.89 8.237-4.851 9.523l-14.315 4.649c-3.967 1.287-8.244-.889-9.533-4.853-1.286-3.96.892-8.232 4.853-9.521z"/><path d="m450.567 218.933c-3.842-11.827-16.589-18.326-28.42-14.483l-14.33 4.65c-11.83 3.847-18.326 16.598-14.479 28.424 3.84 11.813 16.534 18.36 28.436 14.489l14.312-4.656c11.826-3.843 18.323-16.593 14.481-28.424zm-19.12 14.16-14.312 4.656c-3.973 1.29-8.242-.886-9.533-4.861 0-.001 0-.002-.001-.002-1.289-3.968.895-8.233 4.85-9.52 14.643-4.627 14.583-5.02 16.658-5.02 3.187 0 6.156 2.032 7.191 5.221 1.289 3.964-.888 8.237-4.853 9.526z"/><path d="m180.694 256.014c0 41.276 33.321 82.79 75.943 82.79 41.59 0 89.635-40.481 89.635-82.79 0-42.263-47.996-82.789-89.635-82.789-42.574 0-75.943 41.455-75.943 82.789zm75.944-67.789c33.747 0 74.635 34.218 74.635 67.789 0 33.59-40.905 67.79-74.635 67.79-34.881 0-60.943-35.79-60.943-67.79s26.062-67.789 60.943-67.789z"/><path d="m431.049 421.818c-45.827 48.462-108.01 75.151-175.094 75.151-132.863 0-240.955-108.091-240.955-240.955 0-86.464 46.49-166.704 121.328-209.404 3.598-2.054 4.851-6.634 2.798-10.231s-6.632-4.85-10.231-2.798c-79.811 45.538-128.895 130.069-128.895 222.433 0 141.457 114.477 255.955 255.955 255.955 71.25 0 137.303-28.356 185.992-79.845 2.846-3.01 2.714-7.757-.296-10.603-3.009-2.845-7.756-2.714-10.602.297z"/><path d="m507.804 210.127c-9.405-51.92-54.664-89.604-107.615-89.604h-8.742v-8.742c0-52.951-37.684-98.21-89.604-107.615-46.397-8.399-95.333-4.021-140.326 13.767-3.853 1.522-5.741 5.88-4.218 9.731 1.523 3.854 5.885 5.739 9.731 4.218 43.375-17.147 89.645-20.65 132.14-12.956 44.777 8.111 77.277 47.163 77.277 92.855v16.242c0 4.143 3.357 7.5 7.5 7.5h16.242c45.692 0 84.744 32.5 92.855 77.276 11.691 64.608-2.655 129.492-40.397 182.699-2.396 3.378-1.601 8.06 1.778 10.456 3.371 2.393 8.056 1.606 10.456-1.778 40.096-56.523 55.34-125.438 42.923-194.049z"/><path d="m185.764 386.135v12.047c0 4.143 3.357 7.5 7.5 7.5s7.5-3.357 7.5-7.5v-12.047c0-4.143-3.357-7.5-7.5-7.5s-7.5 3.357-7.5 7.5z"/><path d="m311.146 386.135v12.047c0 4.143 3.357 7.5 7.5 7.5s7.5-3.357 7.5-7.5v-12.047c0-4.143-3.357-7.5-7.5-7.5s-7.5 3.357-7.5 7.5z"/><path d="m266.819 392.898c-5.743 6.602-15.994 6.592-21.729 0-2.717-3.127-7.455-3.457-10.58-.738-3.126 2.718-3.457 7.455-.738 10.58 11.719 13.48 32.66 13.464 44.365 0 2.719-3.125 2.388-7.862-.738-10.58-3.123-2.717-7.862-2.389-10.58.738z"/></g></g></svg>