<svg id="Capa_1" enable-background="new 0 0 512 512" height="512" viewBox="0 0 512 512" width="512" xmlns="http://www.w3.org/2000/svg"><g><path d="m323.01 116.366c34.599 6.627 65.755 18.484 91.247 34.157 18.789 64.958-71.16 131.379-93.329 124.531-22.772-7.028-42.504-114.795 2.082-158.688z" fill="#c97c48"/><path d="m241.492 110.844c-21.745 1.094-43.181 4.226-63.607 9.195-49.899 27.252-60.191 118.871-14.724 154.944 44.327-29.478 109.173-131.592 78.331-164.139z" fill="#c97c48"/><path d="m177.884 120.038c-16.13 3.923-31.632 8.99-46.154 15.113-48.09 42.846-14.773 140.71 6.463 147.266 6.52 2.016 15.254-.975 24.968-7.435-11.506-51.32-6.715-105.826 14.723-154.944z" fill="#c16d35"/><path d="m504.5 255.978c0-46.226-27.46-87.572-71.799-117.402-5.623-3.785-13.304-1.315-15.723 5.01-.894 2.339-1.807 4.649-2.721 6.938-26.055 65.062-59.901 108.467-82.07 101.619-22.772-7.028-25.804-64.791-9.177-135.776.271-1.185.552-2.37.843-3.554 2.119-8.775-3.785-17.5-12.731-18.786-16.798-2.43-34.238-3.715-52.11-3.715-7.217 0-13.028 4.799-14.82 11.185-1.28 4.599-2.706 9.442-4.086 13.906-21.905 70.909-54.896 126.285-80.63 139.181-64.625 73.685-4.74 151.891 99.671 167.06 135.243-.05 245.353-73.095 245.353-165.666z" fill="#cf8c5d"/><path d="m159.477 254.583c-5.559 2.786-10.781 3.599-15.477 2.148-21.235-6.556-25.302-57.21-12.269-121.579.271-1.365.562-2.741.853-4.127 1.777-8.414-6.767-15.332-14.609-11.808-65.976 29.65-110.475 79.46-110.475 136.761 0 92.603 116.208 165.667 251.512 165.667.045 0 .09-.001.135-.001-53.114-39.09-90.215-98.655-99.67-167.061z" fill="#c97c48"/><path d="m335.881 312.334c16.276 0 29.469 10.502 29.469 23.464s-13.193 23.474-29.469 23.474c-16.286 0-29.479-10.512-29.479-23.474s13.194-23.464 29.479-23.464z" fill="#fff"/><path d="m176.119 312.334c16.286 0 29.479 10.502 29.479 23.464s-13.193 23.474-29.479 23.474c-16.275 0-29.469-10.512-29.469-23.474s13.193-23.464 29.469-23.464z" fill="#fff"/><path d="m433.18 363.938c-91.744 65.343-247.892 67.379-346.579 3.309-46.172-29.976-71.601-69.493-71.601-111.269 0-26.389 10.439-52.548 30.189-75.65 2.691-3.148 2.321-7.883-.828-10.574-3.149-2.693-7.884-2.321-10.574.827-22.103 25.855-33.787 55.385-33.787 85.397 0 47.029 27.854 91.014 78.433 123.85 102.164 66.326 264.919 66.506 363.448-3.672 3.374-2.402 4.161-7.086 1.759-10.459-2.405-3.375-7.086-4.163-10.46-1.759z"/><path d="m436.89 132.354c-9.151-6.161-21.637-2.72-26.357 7.304-23.078-12.973-50.018-22.952-78.797-29.161.654-11.834-7.826-22.21-19.54-23.893-17.395-2.516-35.329-3.792-53.304-3.792-10.155 0-19.169 6.851-21.925 16.674-.382 1.374-.783 2.779-1.19 4.192-33.576 2.198-66.474 9.145-96.133 20.272-2.911-10.335-14.479-16.187-24.746-11.573-20.512 9.225-38.934 20.302-54.756 32.926-3.237 2.583-3.769 7.302-1.185 10.541 2.581 3.237 7.301 3.769 10.54 1.185 14.841-11.841 32.186-22.261 51.551-30.97 1.455-.652 2.576-.021 3.116.414 1.767 1.425.966 3.308.986 3.447-.256 1.217-.542 2.587-.786 3.812-11.49 56.793-12.943 120.792 17.419 130.165 16.436 5.086 35.938-8.131 56.395-38.212 23.467-34.508 41.982-81.745 53.235-122.162.942-3.362 4.018-5.71 7.478-5.71 17.259 0 34.471 1.224 51.164 3.639 4.599.66 7.58 5.153 6.516 9.567-7.215 29.316-13.149 67.307-11.232 97.693 2.286 36.241 14.659 47.519 24.635 50.598 32.055 9.901 69.187-50.912 91.248-106.003.929-2.324 1.855-4.668 2.761-7.039.7-1.828 2.91-2.559 4.532-1.467 44.163 29.71 68.485 69.194 68.485 111.177 0 30.766-13.175 60.535-38.101 86.091-2.893 2.965-2.833 7.713.133 10.605 2.964 2.89 7.711 2.835 10.605-.133 27.715-28.414 42.363-61.805 42.363-96.563 0-47.133-26.676-91.038-75.11-123.624zm-251.115 84.895c-18.456 27.139-32.544 34.487-39.563 32.316-6.86-2.118-11.993-14.324-13.731-32.652-1.9-20.037.175-47.017 5.833-76.345 28.321-11.458 60.11-18.816 92.771-21.501-12.428 38.653-28.416 73.34-45.31 98.182zm180.131 6.367c-12.48 15.613-24.263 23.598-31.508 21.36-14.659-4.524-20.635-51.261-5.694-119.787 27.98 6.047 54.059 15.802 76.16 28.488-11.927 28.623-25.653 53.293-38.958 69.939z"/><path d="m200.798 313.208v-12.049c0-4.143-3.357-7.5-7.5-7.5s-7.5 3.357-7.5 7.5v12.049c0 4.143 3.357 7.5 7.5 7.5s7.5-3.357 7.5-7.5z"/><path d="m326.202 313.208v-12.049c0-4.143-3.357-7.5-7.5-7.5s-7.5 3.357-7.5 7.5v12.049c0 4.143 3.357 7.5 7.5 7.5s7.5-3.357 7.5-7.5z"/><path d="m256 327.877c8.513 0 16.6-3.685 22.186-10.108 2.719-3.126 2.388-7.863-.737-10.581-3.126-2.718-7.863-2.388-10.581.737-2.736 3.147-6.697 4.952-10.867 4.952s-8.131-1.805-10.867-4.951c-2.717-3.127-7.455-3.457-10.58-.738-3.126 2.718-3.457 7.455-.738 10.58 5.584 6.424 13.67 10.109 22.184 10.109z"/></g></svg>