<?xml version="1.0" encoding="iso-8859-1"?>
<!-- Generator: Adobe Illustrator 19.0.0, SVG Export Plug-In . SVG Version: 6.00 Build 0)  -->
<svg xmlns="http://www.w3.org/2000/svg" xmlns:xlink="http://www.w3.org/1999/xlink" version="1.1" id="Capa_1" x="0px" y="0px" viewBox="0 0 512 512" style="enable-background:new 0 0 512 512;" xml:space="preserve" width="512" height="512">
<g>
	<g>
		<path style="fill:#F6D190;" d="M452.179,222.939l37.966,70.558c9.423,17.512,14.355,37.088,14.355,56.974v17.182    c0,20.158-22.952,31.724-39.154,19.73l-91.065-68.569L452.179,222.939z"/>
		<path style="fill:#ECBD83;" d="M498.625,383.634l-106.051-87.336l-18.293,22.515l91.065,68.569    C476.46,395.61,490.746,392.748,498.625,383.634z"/>
		<path style="fill:#FFE09F;" d="M392.274,167.793l56.592,34.008c12.475,7.497,15.484,24.271,6.392,35.636l-67.571,84.464    c-6.761,8.451-18.334,11.345-28.277,7.07l-39.281-16.888L392.274,167.793z"/>
		<path style="fill:#F6D190;" d="M288.065,127.713l91.201,18.297c14.971,3.003,23.388,19.017,17.373,33.051l-56.313,131.397    c-2.526,5.895-8.322,9.717-14.736,9.717h-45.541L288.065,127.713z"/>
		<path style="fill:#ECBD83;" d="M59.821,222.939l-37.966,70.558C12.432,311.008,7.5,330.584,7.5,350.471v17.182    c0,20.158,22.952,31.724,39.154,19.73l91.065-68.569L59.821,222.939z"/>
		<path style="fill:#FFE09F;" d="M119.726,167.793l-56.592,34.008c-12.475,7.497-15.484,24.271-6.392,35.636l67.571,84.464    c6.761,8.451,18.334,11.345,28.277,7.07l39.281-16.888L119.726,167.793z"/>
		<path style="fill:#F6D190;" d="M131.75,280.019l-61.756-82.34l-6.86,4.123c-12.475,7.497-15.484,24.271-6.392,35.636    l67.571,84.464c6.761,8.451,18.334,11.345,28.277,7.07l39.281-16.888l-8.016-16.032h-20.04    C151.199,296.052,139.319,290.112,131.75,280.019z"/>
		<path style="fill:#F6D190;" d="M223.935,127.713l-91.201,18.297c-14.971,3.003-23.388,19.017-17.373,33.051l56.313,131.397    c2.526,5.895,8.322,9.717,14.736,9.717h45.541L223.935,127.713z"/>
		<path style="fill:#ECBD83;" d="M171.675,310.458c2.526,5.895,8.322,9.717,14.736,9.717h45.541l-1.005-24.123h-65.446    L171.675,310.458z"/>
		<path style="fill:#FFE09F;" d="M292.098,119.772h-72.196c-14.739,0-26.01,13.137-23.769,27.705l24.665,160.323    c1.804,11.732,11.899,20.392,23.769,20.392h22.866c11.87,0,21.964-8.66,23.769-20.392l24.665-160.323    C318.108,132.909,306.837,119.772,292.098,119.772z"/>
	</g>
	<path d="M497.261,290.359l-30.827-58.48c1.457-4.789,1.771-9.911,0.833-14.952c-1.68-9.025-7.191-16.854-15.12-21.479L406,168.529   c-0.181-4.66-1.403-9.279-3.657-13.535c-4.485-8.471-12.454-14.377-21.862-16.206l-61.854-12.021   c-0.779-1.211-1.635-2.38-2.585-3.488c-6-6.994-14.728-11.006-23.944-11.006h-72.196c-9.216,0-17.943,4.012-23.944,11.006   c-0.95,1.108-1.806,2.277-2.585,3.488l-61.854,12.021c-9.409,1.829-17.377,7.735-21.862,16.206   c-2.253,4.256-3.476,8.875-3.657,13.535l-46.147,26.919c-7.929,4.625-13.44,12.454-15.12,21.479   c-0.938,5.041-0.624,10.163,0.833,14.952l-30.827,58.48C5.097,308.65,0,329.249,0,349.926v17.727   c0,12.175,6.754,23.141,17.626,28.62c4.593,2.314,9.535,3.456,14.45,3.456c6.72,0,13.389-2.134,19.04-6.317l77.463-57.346   c4.117,2.333,8.757,3.565,13.489,3.565c3.456,0,6.958-0.653,10.335-2.004l24.879-9.952h46.2c5.601,5.021,12.998,8.016,21.083,8.016   h22.866c8.085,0,15.482-2.996,21.084-8.016h46.2l24.879,9.952c3.378,1.351,6.879,2.004,10.335,2.004   c4.731,0,9.372-1.232,13.489-3.566l77.463,57.346c5.652,4.185,12.319,6.317,19.04,6.317c4.915,0,9.858-1.142,14.45-3.456   c10.873-5.479,17.626-16.445,17.626-28.62v-17.727C512,329.249,506.903,308.65,497.261,290.359z M42.192,381.355   c-5.284,3.911-11.944,4.481-17.815,1.522c-5.871-2.958-9.376-8.65-9.376-15.224v-17.727c0-18.25,4.498-36.429,13.008-52.573   l26.637-50.532l62.962,78.703L42.192,381.355z M146.833,323.699c-5.2,2.08-11.045,0.54-14.545-3.834l-69.462-86.828   c-3.008-3.76-4.228-8.632-3.347-13.365c0.881-4.734,3.771-8.841,7.931-11.267l41.894-24.438l35.606,83.079   c1.219,2.844,3.987,4.547,6.897,4.547c0.986,0,1.988-0.195,2.951-0.608c3.807-1.631,5.571-6.041,3.939-9.848l-36.37-84.862   c-1.98-4.621-1.767-9.819,0.586-14.262c2.353-4.443,6.532-7.542,11.468-8.501l53.991-10.493c-0.047,1.858,0.062,3.73,0.349,5.598   l24.665,160.322c0.196,1.277,0.472,2.521,0.809,3.736h-33.411l-8.367-19.523c-1.632-3.807-6.041-5.571-9.848-3.939   c-3.807,1.631-5.571,6.041-3.939,9.848l7.288,17.005L146.833,323.699z M267.433,320.691h-22.866   c-8.227,0-15.105-5.901-16.356-14.032l-24.665-160.322c-0.735-4.778,0.649-9.623,3.796-13.292c3.148-3.669,7.726-5.773,12.56-5.773   h72.196c4.834,0,9.412,2.104,12.56,5.773c3.147,3.669,4.531,8.513,3.796,13.292l-1.905,12.38c-0.63,4.094,2.178,7.924,6.272,8.554   c4.097,0.628,7.923-2.178,8.553-6.272l1.905-12.38c0.287-1.868,0.396-3.74,0.349-5.598l53.991,10.493   c4.935,0.959,9.115,4.058,11.467,8.501c2.353,4.443,2.566,9.642,0.586,14.262l-58.457,136.399h-33.411   c0.337-1.215,0.613-2.459,0.809-3.735l17.827-115.875c0.63-4.094-2.178-7.924-6.272-8.554c-4.095-0.629-7.923,2.179-8.553,6.272   L283.789,306.66C282.539,314.79,275.66,320.691,267.433,320.691z M365.167,323.699l-19.084-7.633l56.614-132.099l41.894,24.438   c4.159,2.426,7.05,6.532,7.931,11.267c0.881,4.733-0.339,9.605-3.347,13.365l-69.462,86.828   C376.212,324.238,370.366,325.779,365.167,323.699z M497,367.653c0,6.574-3.505,12.266-9.376,15.224s-12.531,2.39-17.815-1.522   l-75.416-55.83l62.962-78.703l26.637,50.532c8.51,16.144,13.008,34.323,13.008,52.573V367.653z"/>
</g>















</svg>
